Extra Light
<glyph name="exclam" format="2">
  <advance width="366"/>
  <unicode hex="0021"/>
  <outline>
    <component base="period" xOffset="-16"/>
    <contour>
      <point x="207" y="728" type="line"/>
      <point x="207" y="1522" type="line" smooth="yes"/>
      <point x="207" y="1525"/>
      <point x="205" y="1526"/>
      <point x="202" y="1527" type="curve" smooth="yes"/>
      <point x="188" y="1530"/>
      <point x="174" y="1530"/>
      <point x="160" y="1527" type="curve" smooth="yes"/>
      <point x="157" y="1526"/>
      <point x="155" y="1525"/>
      <point x="155" y="1522" type="curve" smooth="yes"/>
      <point x="155" y="728" type="line"/>
      <point x="168" y="317" type="line" smooth="yes"/>
      <point x="168" y="313"/>
      <point x="170" y="313"/>
      <point x="173" y="312" type="curve" smooth="yes"/>
      <point x="178" y="311"/>
      <point x="184" y="311"/>
      <point x="189" y="312" type="curve" smooth="yes"/>
      <point x="192" y="313"/>
      <point x="194" y="313"/>
      <point x="194" y="317" type="curve" smooth="yes"/>
    </contour>
  </outline>
</glyph>
<glyph name="numbersign" format="2">
  <advance width="1169"/>
  <unicode hex="0023"/>
  <outline>
    <contour>
      <point x="743" y="1065" type="line"/>
      <point x="743" y="141" type="line"/>
      <point x="795" y="141" type="line"/>
      <point x="795" y="1065" type="line"/>
    </contour>
    <contour>
      <point x="369" y="1065" type="line"/>
      <point x="369" y="141" type="line"/>
      <point x="421" y="141" type="line"/>
      <point x="421" y="1065" type="line"/>
    </contour>
    <contour>
      <point x="123" y="767" type="line"/>
      <point x="1047" y="767" type="line"/>
      <point x="1047" y="819" type="line"/>
      <point x="123" y="819" type="line"/>
    </contour>
    <contour>
      <point x="123" y="393" type="line"/>
      <point x="1047" y="393" type="line"/>
      <point x="1047" y="445" type="line"/>
      <point x="123" y="445" type="line"/>
    </contour>
  </outline>
</glyph>
<glyph name="dollar" format="2">
  <advance width="1121"/>
  <unicode hex="0024"/>
  <note>
uni0024
</note>
  <outline>
    <contour>
      <point x="936" y="297" type="curve" smooth="yes"/>
      <point x="936" y="141"/>
      <point x="786" y="20"/>
      <point x="579" y="20" type="curve" smooth="yes"/>
      <point x="329" y="20"/>
      <point x="173" y="145"/>
      <point x="173" y="354" type="curve"/>
      <point x="120" y="354" type="line"/>
      <point x="120" y="122"/>
      <point x="279" y="-17"/>
      <point x="559" y="-26" type="curve"/>
      <point x="559" y="-192" type="line"/>
      <point x="613" y="-192" type="line"/>
      <point x="613" y="-26" type="line"/>
      <point x="843" y="-14"/>
      <point x="989" y="111"/>
      <point x="989" y="299" type="curve" smooth="yes"/>
      <point x="989" y="394"/>
      <point x="959" y="460"/>
      <point x="896" y="517" type="curve" smooth="yes"/>
      <point x="832" y="574"/>
      <point x="749" y="610"/>
      <point x="568" y="666" type="curve" smooth="yes"/>
      <point x="388" y="721"/>
      <point x="294" y="773"/>
      <point x="252" y="841" type="curve" smooth="yes"/>
      <point x="231" y="874"/>
      <point x="219" y="920"/>
      <point x="219" y="978" type="curve" smooth="yes"/>
      <point x="219" y="1141"/>
      <point x="359" y="1254"/>
      <point x="572" y="1254" type="curve" smooth="yes"/>
      <point x="792" y="1254"/>
      <point x="928" y="1121"/>
      <point x="928" y="920" type="curve"/>
      <point x="981" y="920" type="line"/>
      <point x="981" y="1150"/>
      <point x="845" y="1288"/>
      <point x="602" y="1300" type="curve"/>
      <point x="602" y="1466" type="line"/>
      <point x="547" y="1466" type="line"/>
      <point x="547" y="1300" type="line"/>
      <point x="321" y="1293"/>
      <point x="166" y="1169"/>
      <point x="166" y="976" type="curve" smooth="yes"/>
      <point x="166" y="761"/>
      <point x="330" y="689"/>
      <point x="547" y="621" type="curve" smooth="yes"/>
      <point x="759" y="556"/>
      <point x="857" y="500"/>
      <point x="902" y="430" type="curve" smooth="yes"/>
      <point x="925" y="396"/>
      <point x="936" y="350"/>
    </contour>
  </outline>
</glyph>
<glyph name="plus" format="2">
  <advance width="1083"/>
  <unicode hex="002B"/>
  <note>
uni002B
</note>
  <outline>
    <contour>
      <point x="573" y="1154" type="line"/>
      <point x="520" y="1154" type="line"/>
      <point x="520" y="719" type="line"/>
      <point x="104" y="719" type="line"/>
      <point x="104" y="668" type="line"/>
      <point x="520" y="668" type="line"/>
      <point x="520" y="222" type="line"/>
      <point x="573" y="222" type="line"/>
      <point x="573" y="668" type="line"/>
      <point x="980" y="668" type="line"/>
      <point x="980" y="719" type="line"/>
      <point x="573" y="719" type="line"/>
    </contour>
  </outline>
</glyph>
<glyph name="hyphen" format="2">
  <advance width="973"/>
  <unicode hex="002D"/>
  <outline>
    <contour>
      <point x="849" y="560" type="line"/>
      <point x="127" y="560" type="line"/>
      <point x="127" y="508" type="line"/>
      <point x="849" y="508" type="line"/>
    </contour>
  </outline>
</glyph>
<glyph name="slash" format="2">
  <advance width="1016"/>
  <unicode hex="002F"/>
  <outline>
    <contour>
      <point x="684" y="1489" type="line"/>
      <point x="82" y="-168" type="line"/>
      <point x="138" y="-168" type="line"/>
      <point x="740" y="1489" type="line"/>
    </contour>
  </outline>
</glyph>
<glyph name="one" format="2">
  <advance width="1121"/>
  <unicode hex="0031"/>
  <note>
uni0031
</note>
  <outline>
    <contour>
      <point x="655" y="1407" type="line"/>
      <point x="645" y="1407" type="line"/>
      <point x="200" y="1244" type="line"/>
      <point x="200" y="1187" type="line"/>
      <point x="603" y="1338" type="line"/>
      <point x="603" y="0" type="line"/>
      <point x="655" y="0" type="line"/>
    </contour>
  </outline>
</glyph>
<glyph name="two" format="2">
  <advance width="1121"/>
  <unicode hex="0032"/>
  <note>
uni0032
</note>
  <outline>
    <contour>
      <point x="1007" y="52" type="line"/>
      <point x="236" y="52" type="line"/>
      <point x="748" y="654" type="line" smooth="yes"/>
      <point x="871" y="806"/>
      <point x="932" y="937"/>
      <point x="932" y="1046" type="curve" smooth="yes"/>
      <point x="932" y="1283"/>
      <point x="786" y="1423"/>
      <point x="537" y="1423" type="curve" smooth="yes"/>
      <point x="384" y="1423"/>
      <point x="254" y="1345"/>
      <point x="185" y="1217" type="curve" smooth="yes"/>
      <point x="150" y="1152"/>
      <point x="133" y="1082"/>
      <point x="133" y="1007" type="curve"/>
      <point x="185" y="1007" type="line"/>
      <point x="185" y="1212"/>
      <point x="333" y="1371"/>
      <point x="537" y="1371" type="curve" smooth="yes"/>
      <point x="754" y="1371"/>
      <point x="879" y="1251"/>
      <point x="879" y="1046" type="curve" smooth="yes"/>
      <point x="879" y="926"/>
      <point x="803" y="788"/>
      <point x="647" y="604" type="curve" smooth="yes"/>
      <point x="168" y="52" type="line"/>
      <point x="168" y="0" type="line"/>
      <point x="1007" y="0" type="line"/>
    </contour>
  </outline>
</glyph>
<glyph name="three" format="2">
  <advance width="1121"/>
  <unicode hex="0033"/>
  <note>
uni0033
</note>
  <outline>
    <contour>
      <point x="422" y="688" type="line"/>
      <point x="532" y="688" type="line" smooth="yes"/>
      <point x="799" y="687"/>
      <point x="939" y="575"/>
      <point x="939" y="368" type="curve" smooth="yes"/>
      <point x="939" y="159"/>
      <point x="802" y="33"/>
      <point x="573" y="33" type="curve" smooth="yes"/>
      <point x="341" y="33"/>
      <point x="172" y="185"/>
      <point x="172" y="390" type="curve"/>
      <point x="119" y="390" type="line"/>
      <point x="119" y="133"/>
      <point x="330" y="-19"/>
      <point x="573" y="-19" type="curve" smooth="yes"/>
      <point x="824" y="-19"/>
      <point x="991" y="133"/>
      <point x="991" y="372" type="curve" smooth="yes"/>
      <point x="991" y="557"/>
      <point x="882" y="675"/>
      <point x="698" y="718" type="curve"/>
      <point x="858" y="767"/>
      <point x="960" y="893"/>
      <point x="960" y="1042" type="curve" smooth="yes"/>
      <point x="960" y="1277"/>
      <point x="807" y="1423"/>
      <point x="564" y="1423" type="curve" smooth="yes"/>
      <point x="326" y="1423"/>
      <point x="149" y="1264"/>
      <point x="149" y="1035" type="curve"/>
      <point x="201" y="1035" type="line"/>
      <point x="201" y="1236"/>
      <point x="353" y="1371"/>
      <point x="564" y="1371" type="curve" smooth="yes"/>
      <point x="780" y="1371"/>
      <point x="908" y="1245"/>
      <point x="908" y="1046" type="curve" smooth="yes"/>
      <point x="908" y="871"/>
      <point x="760" y="746"/>
      <point x="540" y="742" type="curve" smooth="yes"/>
      <point x="422" y="742" type="line"/>
    </contour>
  </outline>
</glyph>
<glyph name="four" format="2">
  <advance width="1121"/>
  <unicode hex="0034"/>
  <note>
uni0034
</note>
  <outline>
    <contour>
      <point x="780" y="0" type="line"/>
      <point x="832" y="0" type="line"/>
      <point x="832" y="383" type="line"/>
      <point x="1075" y="383" type="line"/>
      <point x="1075" y="435" type="line"/>
      <point x="832" y="435" type="line"/>
      <point x="832" y="1404" type="line"/>
      <point x="769" y="1404" type="line"/>
      <point x="99" y="412" type="line"/>
      <point x="99" y="383" type="line"/>
      <point x="780" y="383" type="line"/>
    </contour>
    <contour>
      <point x="180" y="435" type="line"/>
      <point x="780" y="1341" type="line"/>
      <point x="780" y="435" type="line"/>
    </contour>
  </outline>
</glyph>
<glyph name="six" format="2">
  <advance width="1121"/>
  <unicode hex="0036"/>
  <note>
uni0036
</note>
  <outline>
    <contour>
      <point x="830" y="1423" type="line"/>
      <point x="385" y="1423"/>
      <point x="144" y="1135"/>
      <point x="144" y="636" type="curve" smooth="yes"/>
      <point x="144" y="464" type="line" smooth="yes"/>
      <point x="146" y="178"/>
      <point x="333" y="-19"/>
      <point x="601" y="-19" type="curve" smooth="yes"/>
      <point x="854" y="-19"/>
      <point x="997" y="216"/>
      <point x="997" y="463" type="curve" smooth="yes"/>
      <point x="997" y="739"/>
      <point x="838" y="923"/>
      <point x="591" y="923" type="curve" smooth="yes"/>
      <point x="423" y="923"/>
      <point x="272" y="839"/>
      <point x="197" y="707" type="curve"/>
      <point x="213" y="1127"/>
      <point x="437" y="1371"/>
      <point x="830" y="1371" type="curve"/>
    </contour>
    <contour>
      <point x="584" y="870" type="curve" smooth="yes"/>
      <point x="808" y="870"/>
      <point x="945" y="712"/>
      <point x="945" y="463" type="curve" smooth="yes"/>
      <point x="945" y="220"/>
      <point x="800" y="32"/>
      <point x="601" y="32" type="curve" smooth="yes"/>
      <point x="361" y="32"/>
      <point x="196" y="211"/>
      <point x="196" y="475" type="curve" smooth="yes"/>
      <point x="196" y="599" type="line"/>
      <point x="235" y="754"/>
      <point x="404" y="870"/>
    </contour>
  </outline>
</glyph>
<glyph name="A" format="2">
  <advance width="1179"/>
  <unicode hex="0041"/>
  <note>
uni0041
</note>
  <outline>
    <contour>
      <point x="1089" y="0" type="line"/>
      <point x="1146" y="0" type="line"/>
      <point x="621" y="1404" type="line"/>
      <point x="557" y="1404" type="line"/>
      <point x="32" y="0" type="line"/>
      <point x="89" y="0" type="line"/>
      <point x="245" y="419" type="line"/>
      <point x="932" y="419" type="line"/>
    </contour>
    <contour>
      <point x="589" y="1341" type="line"/>
      <point x="913" y="471" type="line"/>
      <point x="264" y="471" type="line"/>
    </contour>
  </outline>
</glyph>
<glyph name="B" format="2">
  <advance width="1191"/>
  <unicode hex="0042"/>
  <note>
uni0042
</note>
  <outline>
    <contour>
      <point x="645" y="0" type="line" smooth="yes"/>
      <point x="921" y="0"/>
      <point x="1085" y="147"/>
      <point x="1085" y="387" type="curve" smooth="yes"/>
      <point x="1085" y="555"/>
      <point x="952" y="703"/>
      <point x="774" y="726" type="curve"/>
      <point x="931" y="757"/>
      <point x="1021" y="874"/>
      <point x="1021" y="1044" type="curve" smooth="yes"/>
      <point x="1021" y="1278"/>
      <point x="864" y="1404"/>
      <point x="562" y="1404" type="curve" smooth="yes"/>
      <point x="193" y="1404" type="line"/>
      <point x="193" y="0" type="line"/>
    </contour>
    <contour>
      <point x="671" y="693" type="line" smooth="yes"/>
      <point x="891" y="689"/>
      <point x="1033" y="562"/>
      <point x="1033" y="385" type="curve" smooth="yes"/>
      <point x="1033" y="176"/>
      <point x="889" y="52"/>
      <point x="651" y="52" type="curve" smooth="yes"/>
      <point x="245" y="52" type="line"/>
      <point x="245" y="693" type="line"/>
    </contour>
    <contour>
      <point x="245" y="1352" type="line"/>
      <point x="574" y="1352" type="line" smooth="yes"/>
      <point x="837" y="1348"/>
      <point x="968" y="1247"/>
      <point x="968" y="1048" type="curve" smooth="yes"/>
      <point x="968" y="841"/>
      <point x="837" y="745"/>
      <point x="582" y="745" type="curve" smooth="yes"/>
      <point x="245" y="745" type="line"/>
    </contour>
  </outline>
</glyph>
<glyph name="D" format="2">
  <advance width="1292"/>
  <unicode hex="0044"/>
  <note>
uni0044
</note>
  <outline>
    <contour>
      <point x="586" y="0" type="line" smooth="yes"/>
      <point x="803" y="1"/>
      <point x="989" y="112"/>
      <point x="1087" y="300" type="curve" smooth="yes"/>
      <point x="1136" y="394"/>
      <point x="1161" y="499"/>
      <point x="1161" y="616" type="curve" smooth="yes"/>
      <point x="1161" y="798" type="line" smooth="yes"/>
      <point x="1156" y="1147"/>
      <point x="916" y="1404"/>
      <point x="581" y="1404" type="curve" smooth="yes"/>
      <point x="193" y="1404" type="line"/>
      <point x="193" y="0" type="line"/>
    </contour>
    <contour>
      <point x="589" y="1352" type="line" smooth="yes"/>
      <point x="886" y="1348"/>
      <point x="1109" y="1114"/>
      <point x="1109" y="790" type="curve" smooth="yes"/>
      <point x="1109" y="610" type="line" smooth="yes"/>
      <point x="1107" y="287"/>
      <point x="883" y="52"/>
      <point x="581" y="52" type="curve" smooth="yes"/>
      <point x="245" y="52" type="line"/>
      <point x="245" y="1352" type="line"/>
    </contour>
  </outline>
</glyph>
<glyph name="E" format="2">
  <advance width="1124"/>
  <unicode hex="0045"/>
  <note>
uni0045
</note>
  <outline>
    <contour>
      <point x="949" y="748" type="line"/>
      <point x="245" y="748" type="line"/>
      <point x="245" y="1352" type="line"/>
      <point x="1047" y="1352" type="line"/>
      <point x="1047" y="1404" type="line"/>
      <point x="193" y="1404" type="line"/>
      <point x="193" y="0" type="line"/>
      <point x="1047" y="0" type="line"/>
      <point x="1047" y="52" type="line"/>
      <point x="245" y="52" type="line"/>
      <point x="245" y="696" type="line"/>
      <point x="949" y="696" type="line"/>
    </contour>
  </outline>
</glyph>
<glyph name="F" format="2">
  <advance width="1129"/>
  <unicode hex="0046"/>
  <note>
uni0046
</note>
  <outline>
    <contour>
      <point x="964" y="744" type="line"/>
      <point x="245" y="744" type="line"/>
      <point x="245" y="1352" type="line"/>
      <point x="1062" y="1352" type="line"/>
      <point x="1062" y="1404" type="line"/>
      <point x="193" y="1404" type="line"/>
      <point x="193" y="0" type="line"/>
      <point x="245" y="0" type="line"/>
      <point x="245" y="690" type="line"/>
      <point x="964" y="690" type="line"/>
    </contour>
  </outline>
</glyph>
<glyph name="G" format="2">
  <advance width="1356"/>
  <unicode hex="0047"/>
  <note>
uni0047
</note>
  <outline>
    <contour>
      <point x="1182" y="636" type="line"/>
      <point x="701" y="636" type="line"/>
      <point x="701" y="583" type="line"/>
      <point x="1130" y="583" type="line"/>
      <point x="1130" y="174" type="line"/>
      <point x="1070" y="96"/>
      <point x="891" y="33"/>
      <point x="703" y="33" type="curve" smooth="yes"/>
      <point x="393" y="33"/>
      <point x="214" y="286"/>
      <point x="214" y="598" type="curve" smooth="yes"/>
      <point x="214" y="821" type="line" smooth="yes"/>
      <point x="214" y="1150"/>
      <point x="404" y="1371"/>
      <point x="687" y="1371" type="curve" smooth="yes"/>
      <point x="937" y="1371"/>
      <point x="1093" y="1247"/>
      <point x="1128" y="1024" type="curve"/>
      <point x="1180" y="1024" type="line"/>
      <point x="1152" y="1271"/>
      <point x="966" y="1423"/>
      <point x="687" y="1423" type="curve" smooth="yes"/>
      <point x="378" y="1423"/>
      <point x="162" y="1180"/>
      <point x="162" y="827" type="curve" smooth="yes"/>
      <point x="162" y="586" type="line" smooth="yes"/>
      <point x="166" y="249"/>
      <point x="367" y="-19"/>
      <point x="703" y="-19" type="curve" smooth="yes"/>
      <point x="916" y="-19"/>
      <point x="1111" y="53"/>
      <point x="1182" y="150" type="curve"/>
    </contour>
  </outline>
</glyph>
<glyph name="O" format="2">
  <advance width="1314"/>
  <unicode hex="004F"/>
  <note>
uni004F
</note>
  <outline>
    <contour>
      <point x="1186" y="807" type="line" smooth="yes"/>
      <point x="1186" y="1152"/>
      <point x="993" y="1423"/>
      <point x="656" y="1423" type="curve" smooth="yes"/>
      <point x="311" y="1423"/>
      <point x="128" y="1144"/>
      <point x="128" y="807" type="curve" smooth="yes"/>
      <point x="128" y="604" type="line" smooth="yes"/>
      <point x="128" y="223"/>
      <point x="342" y="-19"/>
      <point x="658" y="-19" type="curve" smooth="yes"/>
      <point x="1001" y="-19"/>
      <point x="1186" y="254"/>
      <point x="1186" y="597" type="curve" smooth="yes"/>
    </contour>
    <contour>
      <point x="1134" y="604" type="line" smooth="yes"/>
      <point x="1134" y="251"/>
      <point x="951" y="33"/>
      <point x="658" y="33" type="curve" smooth="yes"/>
      <point x="344" y="33"/>
      <point x="181" y="281"/>
      <point x="181" y="597" type="curve" smooth="yes"/>
      <point x="181" y="802" type="line" smooth="yes"/>
      <point x="181" y="1153"/>
      <point x="367" y="1371"/>
      <point x="656" y="1371" type="curve" smooth="yes"/>
      <point x="949" y="1371"/>
      <point x="1134" y="1148"/>
      <point x="1134" y="809" type="curve" smooth="yes"/>
    </contour>
  </outline>
</glyph>
<glyph name="S" format="2">
  <advance width="1168"/>
  <unicode hex="0053"/>
  <note>
uni0053
</note>
  <outline>
    <contour>
      <point x="1034" y="336" type="curve" smooth="yes"/>
      <point x="1034" y="156"/>
      <point x="857" y="33"/>
      <point x="611" y="33" type="curve" smooth="yes"/>
      <point x="335" y="33"/>
      <point x="145" y="166"/>
      <point x="145" y="396" type="curve"/>
      <point x="93" y="396" type="line"/>
      <point x="93" y="227"/>
      <point x="175" y="99"/>
      <point x="337" y="31" type="curve" smooth="yes"/>
      <point x="418" y="-2"/>
      <point x="509" y="-19"/>
      <point x="611" y="-19" type="curve" smooth="yes"/>
      <point x="865" y="-19"/>
      <point x="1087" y="104"/>
      <point x="1087" y="338" type="curve" smooth="yes"/>
      <point x="1087" y="450"/>
      <point x="1042" y="538"/>
      <point x="952" y="604" type="curve" smooth="yes"/>
      <point x="882" y="656"/>
      <point x="770" y="702"/>
      <point x="618" y="742" type="curve" smooth="yes"/>
      <point x="313" y="821"/>
      <point x="191" y="913"/>
      <point x="191" y="1082" type="curve" smooth="yes"/>
      <point x="191" y="1247"/>
      <point x="357" y="1371"/>
      <point x="604" y="1371" type="curve" smooth="yes"/>
      <point x="850" y="1371"/>
      <point x="1020" y="1218"/>
      <point x="1020" y="1008" type="curve"/>
      <point x="1072" y="1008" type="line"/>
      <point x="1072" y="1252"/>
      <point x="881" y="1423"/>
      <point x="604" y="1423" type="curve" smooth="yes"/>
      <point x="328" y="1423"/>
      <point x="139" y="1284"/>
      <point x="139" y="1080" type="curve" smooth="yes"/>
      <point x="139" y="833"/>
      <point x="365" y="756"/>
      <point x="588" y="696" type="curve" smooth="yes"/>
      <point x="831" y="629"/>
      <point x="936" y="571"/>
      <point x="992" y="488" type="curve" smooth="yes"/>
      <point x="1020" y="447"/>
      <point x="1034" y="396"/>
    </contour>
  </outline>
</glyph>
<glyph name="T" format="2">
  <advance width="1180"/>
  <unicode hex="0054"/>
  <note>
uni0054
</note>
  <outline>
    <contour>
      <point x="1127" y="1404" type="line"/>
      <point x="53" y="1404" type="line"/>
      <point x="53" y="1352" type="line"/>
      <point x="564" y="1352" type="line"/>
      <point x="564" y="0" type="line"/>
      <point x="616" y="0" type="line"/>
      <point x="616" y="1352" type="line"/>
      <point x="1127" y="1352" type="line"/>
    </contour>
  </outline>
</glyph>
<glyph name="W" format="2">
  <advance width="1789"/>
  <unicode hex="0057"/>
  <note>
uni0057
</note>
  <outline>
    <contour>
      <point x="472" y="87" type="line"/>
      <point x="117" y="1404" type="line"/>
      <point x="59" y="1404" type="line"/>
      <point x="438" y="0" type="line"/>
      <point x="497" y="0" type="line"/>
      <point x="895" y="1319" type="line"/>
      <point x="1292" y="0" type="line"/>
      <point x="1351" y="0" type="line"/>
      <point x="1729" y="1404" type="line"/>
      <point x="1672" y="1404" type="line"/>
      <point x="1317" y="87" type="line"/>
      <point x="925" y="1404" type="line"/>
      <point x="867" y="1404" type="line"/>
    </contour>
  </outline>
</glyph>
<glyph name="X" format="2">
  <advance width="1179"/>
  <unicode hex="0058"/>
  <note>
uni0058
</note>
  <outline>
    <contour>
      <point x="136" y="1404" type="line"/>
      <point x="70" y="1404" type="line"/>
      <point x="556" y="716" type="line"/>
      <point x="52" y="0" type="line"/>
      <point x="115" y="0" type="line"/>
      <point x="589" y="676" type="line"/>
      <point x="1061" y="0" type="line"/>
      <point x="1126" y="0" type="line"/>
      <point x="622" y="716" type="line"/>
      <point x="1108" y="1404" type="line"/>
      <point x="1042" y="1404" type="line"/>
      <point x="589" y="757" type="line"/>
    </contour>
  </outline>
</glyph>
<glyph name="b" format="2">
  <advance width="1081"/>
  <unicode hex="0062"/>
  <note>
uni0062
</note>
  <outline>
    <contour>
      <point x="963" y="528" type="line" smooth="yes"/>
      <point x="963" y="866"/>
      <point x="814" y="1062"/>
      <point x="570" y="1062" type="curve" smooth="yes"/>
      <point x="412" y="1062"/>
      <point x="289" y="991"/>
      <point x="216" y="853" type="curve"/>
      <point x="216" y="1481" type="line"/>
      <point x="164" y="1481" type="line"/>
      <point x="164" y="0" type="line"/>
      <point x="216" y="0" type="line"/>
      <point x="216" y="165" type="line"/>
      <point x="287" y="49"/>
      <point x="415" y="-19"/>
      <point x="572" y="-19" type="curve" smooth="yes"/>
      <point x="813" y="-19"/>
      <point x="963" y="187"/>
      <point x="963" y="512" type="curve" smooth="yes"/>
    </contour>
    <contour>
      <point x="909" y="532" type="curve" smooth="yes"/>
      <point x="909" y="208"/>
      <point x="787" y="33"/>
      <point x="573" y="33" type="curve" smooth="yes"/>
      <point x="395" y="33"/>
      <point x="271" y="116"/>
      <point x="216" y="264" type="curve"/>
      <point x="216" y="742" type="line"/>
      <point x="271" y="920"/>
      <point x="396" y="1010"/>
      <point x="571" y="1010" type="curve" smooth="yes"/>
      <point x="784" y="1010"/>
      <point x="909" y="832"/>
    </contour>
  </outline>
</glyph>
<glyph name="c" format="2">
  <advance width="1002"/>
  <unicode hex="0063"/>
  <note>
uni0063
</note>
  <outline>
    <contour>
      <point x="520" y="33" type="curve" smooth="yes"/>
      <point x="288" y="33"/>
      <point x="146" y="210"/>
      <point x="146" y="501" type="curve" smooth="yes"/>
      <point x="146" y="535" type="line" smooth="yes"/>
      <point x="146" y="833"/>
      <point x="286" y="1010"/>
      <point x="518" y="1010" type="curve" smooth="yes"/>
      <point x="712" y="1010"/>
      <point x="846" y="887"/>
      <point x="855" y="699" type="curve"/>
      <point x="907" y="699" type="line"/>
      <point x="898" y="919"/>
      <point x="739" y="1062"/>
      <point x="518" y="1062" type="curve" smooth="yes"/>
      <point x="260" y="1062"/>
      <point x="94" y="858"/>
      <point x="94" y="542" type="curve" smooth="yes"/>
      <point x="94" y="507" type="line" smooth="yes"/>
      <point x="94" y="183"/>
      <point x="259" y="-19"/>
      <point x="520" y="-19" type="curve" smooth="yes"/>
      <point x="735" y="-19"/>
      <point x="897" y="114"/>
      <point x="907" y="316" type="curve"/>
      <point x="855" y="316" type="line"/>
      <point x="843" y="139"/>
      <point x="709" y="33"/>
    </contour>
  </outline>
</glyph>
<glyph name="d" format="2">
  <advance width="1081"/>
  <unicode hex="0064"/>
  <note>
uni0064
</note>
  <outline>
    <contour>
      <point x="118" y="519" type="curve" smooth="yes"/>
      <point x="118" y="184"/>
      <point x="268" y="-19"/>
      <point x="509" y="-19" type="curve" smooth="yes"/>
      <point x="666" y="-19"/>
      <point x="794" y="49"/>
      <point x="865" y="167" type="curve"/>
      <point x="865" y="0" type="line"/>
      <point x="917" y="0" type="line"/>
      <point x="917" y="1481" type="line"/>
      <point x="865" y="1481" type="line"/>
      <point x="865" y="851" type="line"/>
      <point x="790" y="991"/>
      <point x="668" y="1062"/>
      <point x="511" y="1062" type="curve" smooth="yes"/>
      <point x="276" y="1062"/>
      <point x="118" y="882"/>
    </contour>
    <contour>
      <point x="172" y="512" type="curve" smooth="yes"/>
      <point x="172" y="840"/>
      <point x="297" y="1010"/>
      <point x="510" y="1010" type="curve" smooth="yes"/>
      <point x="687" y="1010"/>
      <point x="805" y="923"/>
      <point x="865" y="747" type="curve"/>
      <point x="865" y="258" type="line"/>
      <point x="806" y="111"/>
      <point x="680" y="33"/>
      <point x="508" y="33" type="curve" smooth="yes"/>
      <point x="294" y="33"/>
      <point x="172" y="216"/>
    </contour>
  </outline>
</glyph>
<glyph name="g" format="2">
  <advance width="1083"/>
  <unicode hex="0067"/>
  <note>
uni0067
</note>
  <outline>
    <contour>
      <point x="117" y="519" type="curve" smooth="yes"/>
      <point x="117" y="184"/>
      <point x="267" y="-19"/>
      <point x="508" y="-19" type="curve" smooth="yes"/>
      <point x="664" y="-19"/>
      <point x="791" y="47"/>
      <point x="863" y="165" type="curve"/>
      <point x="863" y="5" type="line" smooth="yes"/>
      <point x="859" y="-233"/>
      <point x="734" y="-369"/>
      <point x="520" y="-369" type="curve" smooth="yes"/>
      <point x="390" y="-369"/>
      <point x="298" y="-313"/>
      <point x="217" y="-210" type="curve"/>
      <point x="180" y="-245" type="line"/>
      <point x="263" y="-358"/>
      <point x="382" y="-420"/>
      <point x="522" y="-420" type="curve" smooth="yes"/>
      <point x="765" y="-420"/>
      <point x="916" y="-257"/>
      <point x="916" y="18" type="curve" smooth="yes"/>
      <point x="916" y="1043" type="line"/>
      <point x="863" y="1043" type="line"/>
      <point x="863" y="852" type="line"/>
      <point x="790" y="990"/>
      <point x="666" y="1062"/>
      <point x="510" y="1062" type="curve" smooth="yes"/>
      <point x="275" y="1062"/>
      <point x="117" y="882"/>
    </contour>
    <contour>
      <point x="170" y="512" type="curve" smooth="yes"/>
      <point x="170" y="840"/>
      <point x="295" y="1010"/>
      <point x="509" y="1010" type="curve" smooth="yes"/>
      <point x="689" y="1010"/>
      <point x="806" y="920"/>
      <point x="863" y="739" type="curve"/>
      <point x="863" y="266" type="line"/>
      <point x="812" y="118"/>
      <point x="683" y="33"/>
      <point x="507" y="33" type="curve" smooth="yes"/>
      <point x="294" y="33"/>
      <point x="170" y="214"/>
    </contour>
  </outline>
</glyph>
<glyph name="j" format="2">
  <advance width="429"/>
  <unicode hex="006A"/>
  <note>
uni006A
</note>
  <outline>
    <contour>
      <point x="179" y="1043" type="line"/>
      <point x="179" y="-124" type="line" smooth="yes"/>
      <point x="179" y="-280"/>
      <point x="101" y="-369"/>
      <point x="-43" y="-369" type="curve" smooth="yes"/>
      <point x="-74" y="-369"/>
      <point x="-104" y="-363"/>
      <point x="-135" y="-352" type="curve"/>
      <point x="-138" y="-402" type="line"/>
      <point x="-106" y="-415"/>
      <point x="-75" y="-421"/>
      <point x="-43" y="-421" type="curve" smooth="yes"/>
      <point x="130" y="-421"/>
      <point x="231" y="-317"/>
      <point x="231" y="-124" type="curve" smooth="yes"/>
      <point x="231" y="1043" type="line"/>
    </contour>
    <contour>
      <point x="157" y="1369" type="curve" smooth="yes"/>
      <point x="157" y="1339"/>
      <point x="181" y="1316"/>
      <point x="210" y="1316" type="curve" smooth="yes"/>
      <point x="240" y="1316"/>
      <point x="264" y="1339"/>
      <point x="264" y="1369" type="curve" smooth="yes"/>
      <point x="264" y="1398"/>
      <point x="240" y="1423"/>
      <point x="210" y="1423" type="curve" smooth="yes"/>
      <point x="181" y="1423"/>
      <point x="157" y="1398"/>
    </contour>
  </outline>
</glyph>
<glyph name="k" format="2">
  <advance width="934"/>
  <unicode hex="006B"/>
  <note>
uni006B
</note>
  <outline>
    <contour>
      <point x="852" y="0" type="line"/>
      <point x="919" y="0" type="line"/>
      <point x="410" y="599" type="line"/>
      <point x="889" y="1043" type="line"/>
      <point x="815" y="1043" type="line"/>
      <point x="218" y="489" type="line"/>
      <point x="218" y="1481" type="line"/>
      <point x="166" y="1481" type="line"/>
      <point x="166" y="0" type="line"/>
      <point x="218" y="0" type="line"/>
      <point x="218" y="432" type="line"/>
      <point x="370" y="562" type="line"/>
      <point x="372" y="564" type="line"/>
    </contour>
  </outline>
</glyph>
<glyph name="m" format="2">
  <advance width="1770"/>
  <unicode hex="006D"/>
  <note>
uni006D
</note>
  <outline>
    <contour>
      <point x="155" y="1043" type="line"/>
      <point x="155" y="0" type="line"/>
      <point x="208" y="0" type="line"/>
      <point x="208" y="659" type="line"/>
      <point x="242" y="840"/>
      <point x="373" y="1011"/>
      <point x="575" y="1011" type="curve" smooth="yes"/>
      <point x="773" y="1011"/>
      <point x="859" y="910"/>
      <point x="860" y="701" type="curve" smooth="yes"/>
      <point x="860" y="0" type="line"/>
      <point x="912" y="0" type="line"/>
      <point x="912" y="694" type="line"/>
      <point x="921" y="816"/>
      <point x="1045" y="1007"/>
      <point x="1282" y="1011" type="curve" smooth="yes"/>
      <point x="1479" y="1014"/>
      <point x="1568" y="906"/>
      <point x="1568" y="677" type="curve" smooth="yes"/>
      <point x="1568" y="0" type="line"/>
      <point x="1620" y="0" type="line"/>
      <point x="1620" y="681" type="line" smooth="yes"/>
      <point x="1618" y="935"/>
      <point x="1510" y="1062"/>
      <point x="1285" y="1062" type="curve" smooth="yes"/>
      <point x="1113" y="1062"/>
      <point x="963" y="966"/>
      <point x="901" y="816" type="curve"/>
      <point x="867" y="990"/>
      <point x="752" y="1062"/>
      <point x="577" y="1062" type="curve" smooth="yes"/>
      <point x="418" y="1062"/>
      <point x="279" y="966"/>
      <point x="208" y="796" type="curve"/>
      <point x="208" y="1043" type="line"/>
    </contour>
  </outline>
</glyph>
<glyph name="o" format="2">
  <advance width="1087"/>
  <unicode hex="006F"/>
  <note>
uni006F
</note>
  <outline>
    <contour>
      <point x="87" y="495" type="line" smooth="yes"/>
      <point x="89" y="194"/>
      <point x="275" y="-19"/>
      <point x="545" y="-19" type="curve" smooth="yes"/>
      <point x="826" y="-19"/>
      <point x="1000" y="209"/>
      <point x="1000" y="501" type="curve" smooth="yes"/>
      <point x="1000" y="548" type="line" smooth="yes"/>
      <point x="999" y="832"/>
      <point x="827" y="1062"/>
      <point x="543" y="1062" type="curve" smooth="yes"/>
      <point x="261" y="1062"/>
      <point x="87" y="832"/>
      <point x="87" y="542" type="curve" smooth="yes"/>
    </contour>
    <contour>
      <point x="139" y="532" type="line" smooth="yes"/>
      <point x="139" y="807"/>
      <point x="305" y="1010"/>
      <point x="543" y="1010" type="curve" smooth="yes"/>
      <point x="795" y="1010"/>
      <point x="948" y="787"/>
      <point x="948" y="542" type="curve" smooth="yes"/>
      <point x="948" y="512" type="line" smooth="yes"/>
      <point x="948" y="230"/>
      <point x="783" y="33"/>
      <point x="545" y="33" type="curve" smooth="yes"/>
      <point x="289" y="33"/>
      <point x="139" y="255"/>
      <point x="139" y="501" type="curve" smooth="yes"/>
    </contour>
  </outline>
</glyph>
<glyph name="q" format="2">
  <advance width="1081"/>
  <unicode hex="0071"/>
  <note>
uni0071
</note>
  <outline>
    <contour>
      <point x="118" y="519" type="curve" smooth="yes"/>
      <point x="118" y="184"/>
      <point x="268" y="-19"/>
      <point x="509" y="-19" type="curve" smooth="yes"/>
      <point x="663" y="-19"/>
      <point x="790" y="45"/>
      <point x="865" y="162" type="curve"/>
      <point x="865" y="-401" type="line"/>
      <point x="917" y="-401" type="line"/>
      <point x="917" y="1043" type="line"/>
      <point x="865" y="1043" type="line"/>
      <point x="865" y="857" type="line"/>
      <point x="793" y="989"/>
      <point x="667" y="1062"/>
      <point x="511" y="1062" type="curve" smooth="yes"/>
      <point x="276" y="1062"/>
      <point x="118" y="882"/>
    </contour>
    <contour>
      <point x="172" y="512" type="curve" smooth="yes"/>
      <point x="172" y="840"/>
      <point x="297" y="1010"/>
      <point x="510" y="1010" type="curve" smooth="yes"/>
      <point x="679" y="1010"/>
      <point x="804" y="921"/>
      <point x="865" y="747" type="curve"/>
      <point x="865" y="258" type="line"/>
      <point x="806" y="111"/>
      <point x="680" y="33"/>
      <point x="508" y="33" type="curve" smooth="yes"/>
      <point x="294" y="33"/>
      <point x="172" y="216"/>
    </contour>
  </outline>
</glyph>
<glyph name="u" format="2">
  <advance width="1081"/>
  <unicode hex="0075"/>
  <note>
uni0075
</note>
  <outline>
    <contour>
      <point x="865" y="0" type="line"/>
      <point x="918" y="0" type="line"/>
      <point x="918" y="1043" type="line"/>
      <point x="865" y="1043" type="line"/>
      <point x="865" y="309" type="line"/>
      <point x="831" y="128"/>
      <point x="703" y="33"/>
      <point x="503" y="33" type="curve" smooth="yes"/>
      <point x="316" y="33"/>
      <point x="217" y="148"/>
      <point x="214" y="369" type="curve" smooth="yes"/>
      <point x="214" y="1043" type="line"/>
      <point x="162" y="1043" type="line"/>
      <point x="162" y="371" type="line" smooth="yes"/>
      <point x="165" y="117"/>
      <point x="278" y="-19"/>
      <point x="505" y="-19" type="curve" smooth="yes"/>
      <point x="687" y="-19"/>
      <point x="803" y="53"/>
      <point x="865" y="169" type="curve"/>
    </contour>
  </outline>
</glyph>
<glyph name="x" format="2">
  <advance width="942"/>
  <unicode hex="0078"/>
  <note>
uni0078
</note>
  <outline>
    <contour>
      <point x="137" y="1043" type="line"/>
      <point x="72" y="1043" type="line"/>
      <point x="438" y="535" type="line"/>
      <point x="53" y="0" type="line"/>
      <point x="117" y="0" type="line"/>
      <point x="470" y="490" type="line"/>
      <point x="824" y="0" type="line"/>
      <point x="888" y="0" type="line"/>
      <point x="503" y="535" type="line"/>
      <point x="869" y="1043" type="line"/>
      <point x="804" y="1043" type="line"/>
      <point x="471" y="580" type="line"/>
    </contour>
  </outline>
</glyph>
<glyph name="y" format="2">
  <advance width="943"/>
  <unicode hex="0079"/>
  <note>
uni0079
</note>
  <outline>
    <contour>
      <point x="98" y="1043" type="line"/>
      <point x="41" y="1043" type="line"/>
      <point x="457" y="6" type="line"/>
      <point x="393" y="-167" type="line" smooth="yes"/>
      <point x="340" y="-311"/>
      <point x="273" y="-370"/>
      <point x="163" y="-370" type="curve"/>
      <point x="93" y="-362" type="line"/>
      <point x="94" y="-411" type="line"/>
      <point x="108" y="-418"/>
      <point x="134" y="-421"/>
      <point x="171" y="-421" type="curve" smooth="yes"/>
      <point x="287" y="-421"/>
      <point x="370" y="-361"/>
      <point x="420" y="-239" type="curve" smooth="yes"/>
      <point x="443" y="-181" type="line"/>
      <point x="910" y="1043" type="line"/>
      <point x="852" y="1043" type="line"/>
      <point x="484" y="81" type="line"/>
    </contour>
  </outline>
</glyph>
<glyph name="braceleft" format="2">
  <advance width="1059"/>
  <unicode hex="007B"/>
  <outline>
    <contour>
      <point x="808" y="1839" type="line"/>
      <point x="439" y="1839" type="line" smooth="yes"/>
      <point x="394" y="1839"/>
      <point x="369" y="1814"/>
      <point x="369" y="1769" type="curve" smooth="yes"/>
      <point x="369" y="1062" type="line" smooth="yes"/>
      <point x="369" y="853"/>
      <point x="118" y="854"/>
      <point x="82" y="854" type="curve"/>
      <point x="82" y="786" type="line"/>
      <point x="118" y="786"/>
      <point x="369" y="741"/>
      <point x="369" y="570" type="curve" smooth="yes"/>
      <point x="369" y="-157" type="line" smooth="yes"/>
      <point x="369" y="-202"/>
      <point x="394" y="-227"/>
      <point x="439" y="-227" type="curve" smooth="yes"/>
      <point x="808" y="-227" type="line"/>
      <point x="808" y="-173" type="line"/>
      <point x="447" y="-173" type="line" smooth="yes"/>
      <point x="434" y="-173"/>
      <point x="427" y="-166"/>
      <point x="427" y="-153" type="curve" smooth="yes"/>
      <point x="427" y="570" type="line" smooth="yes"/>
      <point x="427" y="780"/>
      <point x="244" y="800"/>
      <point x="161" y="815" type="curve"/>
      <point x="244" y="825"/>
      <point x="427" y="817"/>
      <point x="427" y="1062" type="curve" smooth="yes"/>
      <point x="427" y="1769" type="line" smooth="yes"/>
      <point x="427" y="1782"/>
      <point x="434" y="1789"/>
      <point x="447" y="1789" type="curve" smooth="yes"/>
      <point x="808" y="1789" type="line"/>
    </contour>
  </outline>
</glyph>
<glyph name="currency" format="2">
  <advance width="1067"/>
  <unicode hex="00A4"/>
  <note>
uni00A4
</note>
  <outline>
    <contour>
      <point x="932" y="141" type="line"/>
      <point x="960" y="168" type="line"/>
      <point x="837" y="293" type="line"/>
      <point x="900" y="372"/>
      <point x="932" y="466"/>
      <point x="932" y="571" type="curve" smooth="yes"/>
      <point x="932" y="681"/>
      <point x="898" y="777"/>
      <point x="829" y="857" type="curve"/>
      <point x="960" y="990" type="line"/>
      <point x="932" y="1017" type="line"/>
      <point x="803" y="885" type="line"/>
      <point x="730" y="954"/>
      <point x="636" y="996"/>
      <point x="529" y="996" type="curve" smooth="yes"/>
      <point x="425" y="996"/>
      <point x="334" y="960"/>
      <point x="257" y="886" type="curve"/>
      <point x="129" y="1016" type="line"/>
      <point x="102" y="990" type="line"/>
      <point x="231" y="859" type="line"/>
      <point x="161" y="779"/>
      <point x="126" y="682"/>
      <point x="126" y="571" type="curve" smooth="yes"/>
      <point x="126" y="464"/>
      <point x="158" y="370"/>
      <point x="224" y="291" type="curve"/>
      <point x="102" y="168" type="line"/>
      <point x="129" y="141" type="line"/>
      <point x="249" y="263" type="line"/>
      <point x="327" y="185"/>
      <point x="427" y="145"/>
      <point x="528" y="145" type="curve" smooth="yes"/>
      <point x="630" y="145"/>
      <point x="733" y="185"/>
      <point x="811" y="265" type="curve"/>
    </contour>
    <contour>
      <point x="163" y="571" type="curve" smooth="yes"/>
      <point x="163" y="782"/>
      <point x="328" y="961"/>
      <point x="529" y="961" type="curve" smooth="yes"/>
      <point x="727" y="961"/>
      <point x="896" y="788"/>
      <point x="896" y="571" type="curve" smooth="yes"/>
      <point x="896" y="360"/>
      <point x="734" y="181"/>
      <point x="529" y="181" type="curve" smooth="yes"/>
      <point x="328" y="181"/>
      <point x="163" y="358"/>
    </contour>
  </outline>
</glyph>
<glyph name="brokenbar" format="2">
  <advance width="428"/>
  <unicode hex="00A6"/>
  <note>
uni00A6
</note>
  <outline>
    <contour>
      <point x="242" y="-125" type="line"/>
      <point x="242" y="614" type="line"/>
      <point x="186" y="614" type="line"/>
      <point x="186" y="-125" type="line"/>
    </contour>
    <contour>
      <point x="242" y="1473" type="line"/>
      <point x="186" y="1473" type="line"/>
      <point x="186" y="774" type="line"/>
      <point x="242" y="774" type="line"/>
    </contour>
  </outline>
</glyph>
<glyph name="section" format="2">
  <advance width="1143"/>
  <unicode hex="00A7"/>
  <note>
uni00A7
</note>
  <outline>
    <contour>
      <point x="1043" y="657" type="curve" smooth="yes"/>
      <point x="1043" y="772"/>
      <point x="987" y="846"/>
      <point x="870" y="901" type="curve" smooth="yes"/>
      <point x="812" y="929"/>
      <point x="716" y="958"/>
      <point x="583" y="990" type="curve" smooth="yes"/>
      <point x="376" y="1044"/>
      <point x="201" y="1090"/>
      <point x="201" y="1281" type="curve" smooth="yes"/>
      <point x="201" y="1443"/>
      <point x="348" y="1539"/>
      <point x="585" y="1539" type="curve" smooth="yes"/>
      <point x="818" y="1539"/>
      <point x="970" y="1402"/>
      <point x="970" y="1204" type="curve"/>
      <point x="1022" y="1204" type="line"/>
      <point x="1022" y="1448"/>
      <point x="861" y="1588"/>
      <point x="585" y="1588" type="curve" smooth="yes"/>
      <point x="318" y="1588"/>
      <point x="149" y="1465"/>
      <point x="149" y="1279" type="curve" smooth="yes"/>
      <point x="149" y="1150"/>
      <point x="215" y="1066"/>
      <point x="381" y="1005" type="curve"/>
      <point x="211" y="981"/>
      <point x="105" y="894"/>
      <point x="105" y="764" type="curve" smooth="yes"/>
      <point x="105" y="596"/>
      <point x="226" y="498"/>
      <point x="574" y="422" type="curve" smooth="yes"/>
      <point x="770" y="374"/>
      <point x="948" y="327"/>
      <point x="948" y="140" type="curve" smooth="yes"/>
      <point x="948" y="-15"/>
      <point x="802" y="-118"/>
      <point x="567" y="-118" type="curve" smooth="yes"/>
      <point x="311" y="-118"/>
      <point x="152" y="6"/>
      <point x="152" y="219" type="curve"/>
      <point x="100" y="217" type="line"/>
      <point x="100" y="-27"/>
      <point x="277" y="-167"/>
      <point x="567" y="-167" type="curve" smooth="yes"/>
      <point x="833" y="-167"/>
      <point x="1001" y="-49"/>
      <point x="1001" y="142" type="curve" smooth="yes"/>
      <point x="1001" y="274"/>
      <point x="933" y="356"/>
      <point x="750" y="420" type="curve"/>
      <point x="930" y="443"/>
      <point x="1043" y="533"/>
    </contour>
    <contour>
      <point x="558" y="956" type="curve"/>
      <point x="674" y="925"/>
      <point x="763" y="896"/>
      <point x="823" y="871" type="curve" smooth="yes"/>
      <point x="942" y="817"/>
      <point x="991" y="756"/>
      <point x="991" y="655" type="curve" smooth="yes"/>
      <point x="991" y="535"/>
      <point x="859" y="451"/>
      <point x="657" y="449" type="curve"/>
      <point x="385" y="525" type="line" smooth="yes"/>
      <point x="248" y="562"/>
      <point x="157" y="656"/>
      <point x="157" y="766" type="curve" smooth="yes"/>
      <point x="157" y="893"/>
      <point x="270" y="977"/>
      <point x="453" y="982" type="curve"/>
      <point x="485" y="972"/>
      <point x="520" y="963"/>
    </contour>
  </outline>
</glyph>
<glyph name="logicalnot" format="2">
  <advance width="1032"/>
  <unicode hex="00AC"/>
  <note>
uni00AC
</note>
  <outline>
    <contour>
      <point x="930" y="659" type="line"/>
      <point x="102" y="659" type="line"/>
      <point x="102" y="608" type="line"/>
      <point x="878" y="608" type="line"/>
      <point x="878" y="236" type="line"/>
      <point x="930" y="236" type="line"/>
    </contour>
  </outline>
</glyph>
<glyph name="Aacute" format="2">
  <advance width="1179"/>
  <unicode hex="00C1"/>
  <note>
uni00C1
</note>
  <outline>
    <contour>
      <point x="1089" y="0" type="line"/>
      <point x="1146" y="0" type="line"/>
      <point x="621" y="1404" type="line"/>
      <point x="557" y="1404" type="line"/>
      <point x="32" y="0" type="line"/>
      <point x="89" y="0" type="line"/>
      <point x="245" y="419" type="line"/>
      <point x="932" y="419" type="line"/>
    </contour>
    <contour>
      <point x="589" y="1341" type="line"/>
      <point x="913" y="471" type="line"/>
      <point x="264" y="471" type="line"/>
    </contour>
    <contour>
      <point x="555" y="1543" type="line"/>
      <point x="613" y="1543" type="line"/>
      <point x="800" y="1800" type="line"/>
      <point x="737" y="1800" type="line"/>
    </contour>
  </outline>
</glyph>
<glyph name="Acircumflex" format="2">
  <advance width="1179"/>
  <unicode hex="00C2"/>
  <note>
uni00C2
</note>
  <outline>
    <contour>
      <point x="1089" y="0" type="line"/>
      <point x="1146" y="0" type="line"/>
      <point x="621" y="1404" type="line"/>
      <point x="557" y="1404" type="line"/>
      <point x="32" y="0" type="line"/>
      <point x="89" y="0" type="line"/>
      <point x="245" y="419" type="line"/>
      <point x="932" y="419" type="line"/>
    </contour>
    <contour>
      <point x="589" y="1341" type="line"/>
      <point x="913" y="471" type="line"/>
      <point x="264" y="471" type="line"/>
    </contour>
    <contour>
      <point x="609" y="1781" type="line"/>
      <point x="571" y="1781" type="line"/>
      <point x="349" y="1551" type="line"/>
      <point x="349" y="1537" type="line"/>
      <point x="411" y="1537" type="line"/>
      <point x="589" y="1726" type="line"/>
      <point x="769" y="1537" type="line"/>
      <point x="835" y="1537" type="line"/>
      <point x="835" y="1547" type="line"/>
    </contour>
  </outline>
</glyph>
<glyph name="Atilde" format="2">
  <advance width="1179"/>
  <unicode hex="00C3"/>
  <note>
uni00C3
</note>
  <outline>
    <contour>
      <point x="1089" y="0" type="line"/>
      <point x="1146" y="0" type="line"/>
      <point x="621" y="1404" type="line"/>
      <point x="557" y="1404" type="line"/>
      <point x="32" y="0" type="line"/>
      <point x="89" y="0" type="line"/>
      <point x="245" y="419" type="line"/>
      <point x="932" y="419" type="line"/>
    </contour>
    <contour>
      <point x="589" y="1341" type="line"/>
      <point x="913" y="471" type="line"/>
      <point x="264" y="471" type="line"/>
    </contour>
    <contour>
      <point x="853" y="1753" type="line"/>
      <point x="853" y="1677"/>
      <point x="806" y="1627"/>
      <point x="737" y="1627" type="curve" smooth="yes"/>
      <point x="633" y="1627"/>
      <point x="588" y="1746"/>
      <point x="460" y="1746" type="curve" smooth="yes"/>
      <point x="362" y="1746"/>
      <point x="290" y="1677"/>
      <point x="290" y="1574" type="curve"/>
      <point x="343" y="1574" type="line"/>
      <point x="343" y="1647"/>
      <point x="388" y="1694"/>
      <point x="460" y="1694" type="curve" smooth="yes"/>
      <point x="500" y="1694"/>
      <point x="685" y="1574"/>
      <point x="737" y="1574" type="curve" smooth="yes"/>
      <point x="833" y="1574"/>
      <point x="906" y="1648"/>
      <point x="906" y="1753" type="curve"/>
    </contour>
  </outline>
</glyph>
<glyph name="Adieresis" format="2">
  <advance width="1179"/>
  <unicode hex="00C4"/>
  <note>
uni00C4
</note>
  <outline>
    <contour>
      <point x="1089" y="0" type="line"/>
      <point x="1146" y="0" type="line"/>
      <point x="621" y="1404" type="line"/>
      <point x="557" y="1404" type="line"/>
      <point x="32" y="0" type="line"/>
      <point x="89" y="0" type="line"/>
      <point x="245" y="419" type="line"/>
      <point x="932" y="419" type="line"/>
    </contour>
    <contour>
      <point x="589" y="1341" type="line"/>
      <point x="913" y="471" type="line"/>
      <point x="264" y="471" type="line"/>
    </contour>
    <contour>
      <point x="324" y="1689" type="curve" smooth="yes"/>
      <point x="324" y="1659"/>
      <point x="348" y="1636"/>
      <point x="377" y="1636" type="curve" smooth="yes"/>
      <point x="407" y="1636"/>
      <point x="431" y="1659"/>
      <point x="431" y="1689" type="curve" smooth="yes"/>
      <point x="431" y="1718"/>
      <point x="407" y="1743"/>
      <point x="377" y="1743" type="curve" smooth="yes"/>
      <point x="348" y="1743"/>
      <point x="324" y="1718"/>
    </contour>
    <contour>
      <point x="753" y="1689" type="curve" smooth="yes"/>
      <point x="753" y="1659"/>
      <point x="776" y="1636"/>
      <point x="806" y="1636" type="curve" smooth="yes"/>
      <point x="836" y="1636"/>
      <point x="860" y="1659"/>
      <point x="860" y="1689" type="curve" smooth="yes"/>
      <point x="860" y="1718"/>
      <point x="836" y="1743"/>
      <point x="806" y="1743" type="curve" smooth="yes"/>
      <point x="776" y="1743"/>
      <point x="753" y="1718"/>
    </contour>
  </outline>
</glyph>
<glyph name="Aring" format="2">
  <advance width="1179"/>
  <unicode hex="00C5"/>
  <note>
uni00C5
</note>
  <outline>
    <contour>
      <point x="1089" y="0" type="line"/>
      <point x="1146" y="0" type="line"/>
      <point x="621" y="1404" type="line"/>
      <point x="557" y="1404" type="line"/>
      <point x="32" y="0" type="line"/>
      <point x="89" y="0" type="line"/>
      <point x="245" y="419" type="line"/>
      <point x="932" y="419" type="line"/>
    </contour>
    <contour>
      <point x="589" y="1341" type="line"/>
      <point x="913" y="471" type="line"/>
      <point x="264" y="471" type="line"/>
    </contour>
    <contour>
      <point x="427" y="1651" type="curve" smooth="yes"/>
      <point x="427" y="1555"/>
      <point x="504" y="1487"/>
      <point x="592" y="1487" type="curve" smooth="yes"/>
      <point x="685" y="1487"/>
      <point x="757" y="1559"/>
      <point x="757" y="1651" type="curve" smooth="yes"/>
      <point x="757" y="1744"/>
      <point x="685" y="1819"/>
      <point x="592" y="1819" type="curve" smooth="yes"/>
      <point x="502" y="1819"/>
      <point x="427" y="1748"/>
    </contour>
    <contour>
      <point x="592" y="1539" type="curve" smooth="yes"/>
      <point x="440" y="1539"/>
      <point x="443" y="1767"/>
      <point x="592" y="1767" type="curve" smooth="yes"/>
      <point x="742" y="1767"/>
      <point x="744" y="1539"/>
    </contour>
  </outline>
</glyph>
<glyph name="AE" format="2">
  <advance width="1750"/>
  <unicode hex="00C6"/>
  <note>
uni00C6
</note>
  <outline>
    <contour>
      <point x="1704" y="52" type="line"/>
      <point x="1028" y="52" type="line"/>
      <point x="1001" y="706" type="line"/>
      <point x="1566" y="706" type="line"/>
      <point x="1566" y="758" type="line"/>
      <point x="999" y="758" type="line"/>
      <point x="974" y="1352" type="line"/>
      <point x="1645" y="1352" type="line"/>
      <point x="1645" y="1404" type="line"/>
      <point x="897" y="1404" type="line"/>
      <point x="48" y="0" type="line"/>
      <point x="111" y="0" type="line"/>
      <point x="357" y="410" type="line"/>
      <point x="962" y="410" type="line"/>
      <point x="979" y="0" type="line"/>
      <point x="1704" y="0" type="line"/>
    </contour>
    <contour>
      <point x="922" y="1348" type="line"/>
      <point x="960" y="461" type="line"/>
      <point x="388" y="461" type="line"/>
    </contour>
  </outline>
</glyph>
<glyph name="Ccedilla" format="2">
  <advance width="1279"/>
  <unicode hex="00C7"/>
  <note>
uni00C7
</note>
  <outline>
    <contour>
      <point x="1095" y="430" type="line"/>
      <point x="1068" y="165"/>
      <point x="915" y="33"/>
      <point x="647" y="33" type="curve" smooth="yes"/>
      <point x="342" y="33"/>
      <point x="191" y="298"/>
      <point x="191" y="597" type="curve" smooth="yes"/>
      <point x="191" y="803" type="line" smooth="yes"/>
      <point x="191" y="1149"/>
      <point x="374" y="1371"/>
      <point x="647" y="1371" type="curve" smooth="yes"/>
      <point x="914" y="1371"/>
      <point x="1065" y="1234"/>
      <point x="1095" y="976" type="curve"/>
      <point x="1147" y="976" type="line"/>
      <point x="1120" y="1263"/>
      <point x="940" y="1423"/>
      <point x="647" y="1423" type="curve" smooth="yes"/>
      <point x="315" y="1423"/>
      <point x="139" y="1143"/>
      <point x="139" y="807" type="curve" smooth="yes"/>
      <point x="139" y="590" type="line" smooth="yes"/>
      <point x="140" y="254"/>
      <point x="319" y="-19"/>
      <point x="647" y="-19" type="curve" smooth="yes"/>
      <point x="942" y="-19"/>
      <point x="1120" y="141"/>
      <point x="1147" y="430" type="curve"/>
    </contour>
    <contour>
      <point x="632" y="-9" type="line"/>
      <point x="608" y="-126" type="line"/>
      <point x="752" y="-141"/>
      <point x="790" y="-173"/>
      <point x="790" y="-245" type="curve" smooth="yes"/>
      <point x="790" y="-325"/>
      <point x="692" y="-381"/>
      <point x="562" y="-381" type="curve"/>
      <point x="569" y="-428" type="line"/>
      <point x="740" y="-428"/>
      <point x="843" y="-354"/>
      <point x="843" y="-245" type="curve" smooth="yes"/>
      <point x="843" y="-147"/>
      <point x="787" y="-93"/>
      <point x="673" y="-82" type="curve"/>
      <point x="683" y="-9" type="line"/>
    </contour>
  </outline>
</glyph>
<glyph name="Egrave" format="2">
  <advance width="1124"/>
  <unicode hex="00C8"/>
  <note>
uni00C8
</note>
  <outline>
    <contour>
      <point x="949" y="748" type="line"/>
      <point x="245" y="748" type="line"/>
      <point x="245" y="1352" type="line"/>
      <point x="1047" y="1352" type="line"/>
      <point x="1047" y="1404" type="line"/>
      <point x="193" y="1404" type="line"/>
      <point x="193" y="0" type="line"/>
      <point x="1047" y="0" type="line"/>
      <point x="1047" y="52" type="line"/>
      <point x="245" y="52" type="line"/>
      <point x="245" y="696" type="line"/>
      <point x="949" y="696" type="line"/>
    </contour>
    <contour>
      <point x="455" y="1800" type="line"/>
      <point x="391" y="1800" type="line"/>
      <point x="579" y="1543" type="line"/>
      <point x="636" y="1543" type="line"/>
    </contour>
  </outline>
</glyph>
<glyph name="Igrave" format="2">
  <advance width="515"/>
  <unicode hex="00CC"/>
  <note>
uni00CC
</note>
  <outline>
    <contour>
      <point x="287" y="1404" type="line"/>
      <point x="235" y="1404" type="line"/>
      <point x="235" y="0" type="line"/>
      <point x="287" y="0" type="line"/>
    </contour>
    <contour>
      <point x="120" y="1800" type="line"/>
      <point x="56" y="1800" type="line"/>
      <point x="244" y="1543" type="line"/>
      <point x="301" y="1543" type="line"/>
    </contour>
  </outline>
</glyph>
<glyph name="Idieresis" format="2">
  <advance width="515"/>
  <unicode hex="00CF"/>
  <note>
uni00CF
</note>
  <outline>
    <contour>
      <point x="283" y="1404" type="line"/>
      <point x="231" y="1404" type="line"/>
      <point x="231" y="0" type="line"/>
      <point x="283" y="0" type="line"/>
    </contour>
    <contour>
      <point x="-7" y="1689" type="curve" smooth="yes"/>
      <point x="-7" y="1659"/>
      <point x="17" y="1636"/>
      <point x="46" y="1636" type="curve" smooth="yes"/>
      <point x="76" y="1636"/>
      <point x="100" y="1659"/>
      <point x="100" y="1689" type="curve" smooth="yes"/>
      <point x="100" y="1718"/>
      <point x="76" y="1743"/>
      <point x="46" y="1743" type="curve" smooth="yes"/>
      <point x="17" y="1743"/>
      <point x="-7" y="1718"/>
    </contour>
    <contour>
      <point x="422" y="1689" type="curve" smooth="yes"/>
      <point x="422" y="1659"/>
      <point x="445" y="1636"/>
      <point x="475" y="1636" type="curve" smooth="yes"/>
      <point x="505" y="1636"/>
      <point x="529" y="1659"/>
      <point x="529" y="1689" type="curve" smooth="yes"/>
      <point x="529" y="1718"/>
      <point x="505" y="1743"/>
      <point x="475" y="1743" type="curve" smooth="yes"/>
      <point x="445" y="1743"/>
      <point x="422" y="1718"/>
    </contour>
  </outline>
</glyph>
<glyph name="Eth" format="2">
  <advance width="1321"/>
  <unicode hex="00D0"/>
  <note>
uni00D0
</note>
  <outline>
    <contour>
      <point x="616" y="0" type="line" smooth="yes"/>
      <point x="833" y="1"/>
      <point x="1018" y="112"/>
      <point x="1116" y="300" type="curve" smooth="yes"/>
      <point x="1166" y="394"/>
      <point x="1190" y="499"/>
      <point x="1190" y="616" type="curve" smooth="yes"/>
      <point x="1190" y="798" type="line" smooth="yes"/>
      <point x="1187" y="1143"/>
      <point x="948" y="1404"/>
      <point x="611" y="1404" type="curve" smooth="yes"/>
      <point x="222" y="1404" type="line"/>
      <point x="222" y="739" type="line"/>
      <point x="58" y="739" type="line"/>
      <point x="58" y="687" type="line"/>
      <point x="222" y="687" type="line"/>
      <point x="222" y="0" type="line"/>
    </contour>
    <contour>
      <point x="624" y="739" type="line"/>
      <point x="274" y="739" type="line"/>
      <point x="274" y="1352" type="line"/>
      <point x="619" y="1352" type="line" smooth="yes"/>
      <point x="916" y="1348"/>
      <point x="1138" y="1114"/>
      <point x="1138" y="790" type="curve" smooth="yes"/>
      <point x="1138" y="624" type="line" smooth="yes"/>
      <point x="1138" y="288"/>
      <point x="919" y="52"/>
      <point x="601" y="52" type="curve" smooth="yes"/>
      <point x="274" y="52" type="line"/>
      <point x="274" y="687" type="line"/>
      <point x="624" y="687" type="line"/>
    </contour>
  </outline>
</glyph>
<glyph name="Ntilde" format="2">
  <advance width="1397"/>
  <unicode hex="00D1"/>
  <note>
uni00D1
</note>
  <outline>
    <contour>
      <point x="1204" y="1404" type="line"/>
      <point x="1152" y="1404" type="line"/>
      <point x="1152" y="92" type="line"/>
      <point x="246" y="1404" type="line"/>
      <point x="193" y="1404" type="line"/>
      <point x="193" y="0" type="line"/>
      <point x="246" y="0" type="line"/>
      <point x="246" y="1315" type="line"/>
      <point x="1152" y="0" type="line"/>
      <point x="1204" y="0" type="line"/>
    </contour>
    <contour>
      <point x="963" y="1753" type="line"/>
      <point x="963" y="1677"/>
      <point x="916" y="1627"/>
      <point x="847" y="1627" type="curve" smooth="yes"/>
      <point x="810" y="1627"/>
      <point x="767" y="1647"/>
      <point x="718" y="1686" type="curve" smooth="yes"/>
      <point x="670" y="1726"/>
      <point x="620" y="1746"/>
      <point x="570" y="1746" type="curve" smooth="yes"/>
      <point x="472" y="1746"/>
      <point x="400" y="1677"/>
      <point x="400" y="1574" type="curve"/>
      <point x="453" y="1574" type="line"/>
      <point x="453" y="1647"/>
      <point x="498" y="1694"/>
      <point x="570" y="1694" type="curve" smooth="yes"/>
      <point x="610" y="1694"/>
      <point x="653" y="1674"/>
      <point x="699" y="1634" type="curve" smooth="yes"/>
      <point x="746" y="1594"/>
      <point x="795" y="1574"/>
      <point x="847" y="1574" type="curve" smooth="yes"/>
      <point x="943" y="1574"/>
      <point x="1016" y="1648"/>
      <point x="1016" y="1753" type="curve"/>
    </contour>
  </outline>
</glyph>
<glyph name="Odieresis" format="2">
  <advance width="1314"/>
  <unicode hex="00D6"/>
  <note>
uni00D6
</note>
  <outline>
    <contour>
      <point x="1186" y="807" type="line" smooth="yes"/>
      <point x="1186" y="1152"/>
      <point x="993" y="1423"/>
      <point x="656" y="1423" type="curve" smooth="yes"/>
      <point x="311" y="1423"/>
      <point x="128" y="1144"/>
      <point x="128" y="807" type="curve" smooth="yes"/>
      <point x="128" y="604" type="line" smooth="yes"/>
      <point x="128" y="223"/>
      <point x="342" y="-19"/>
      <point x="658" y="-19" type="curve" smooth="yes"/>
      <point x="1001" y="-19"/>
      <point x="1186" y="254"/>
      <point x="1186" y="597" type="curve" smooth="yes"/>
    </contour>
    <contour>
      <point x="1134" y="604" type="line" smooth="yes"/>
      <point x="1134" y="251"/>
      <point x="951" y="33"/>
      <point x="658" y="33" type="curve" smooth="yes"/>
      <point x="344" y="33"/>
      <point x="181" y="281"/>
      <point x="181" y="597" type="curve" smooth="yes"/>
      <point x="181" y="802" type="line" smooth="yes"/>
      <point x="181" y="1153"/>
      <point x="367" y="1371"/>
      <point x="656" y="1371" type="curve" smooth="yes"/>
      <point x="949" y="1371"/>
      <point x="1134" y="1148"/>
      <point x="1134" y="809" type="curve" smooth="yes"/>
    </contour>
    <contour>
      <point x="385" y="1710" type="curve" smooth="yes"/>
      <point x="385" y="1680"/>
      <point x="409" y="1657"/>
      <point x="438" y="1657" type="curve" smooth="yes"/>
      <point x="468" y="1657"/>
      <point x="492" y="1680"/>
      <point x="492" y="1710" type="curve" smooth="yes"/>
      <point x="492" y="1739"/>
      <point x="468" y="1764"/>
      <point x="438" y="1764" type="curve" smooth="yes"/>
      <point x="409" y="1764"/>
      <point x="385" y="1739"/>
    </contour>
    <contour>
      <point x="814" y="1710" type="curve" smooth="yes"/>
      <point x="814" y="1680"/>
      <point x="837" y="1657"/>
      <point x="867" y="1657" type="curve" smooth="yes"/>
      <point x="897" y="1657"/>
      <point x="921" y="1680"/>
      <point x="921" y="1710" type="curve" smooth="yes"/>
      <point x="921" y="1739"/>
      <point x="897" y="1764"/>
      <point x="867" y="1764" type="curve" smooth="yes"/>
      <point x="837" y="1764"/>
      <point x="814" y="1739"/>
    </contour>
  </outline>
</glyph>
<glyph name="Ucircumflex" format="2">
  <advance width="1315"/>
  <unicode hex="00DB"/>
  <note>
uni00DB
</note>
  <outline>
    <contour>
      <point x="1085" y="1404" type="line"/>
      <point x="1085" y="456" type="line" smooth="yes"/>
      <point x="1085" y="195"/>
      <point x="916" y="33"/>
      <point x="658" y="33" type="curve" smooth="yes"/>
      <point x="400" y="33"/>
      <point x="230" y="195"/>
      <point x="230" y="455" type="curve" smooth="yes"/>
      <point x="230" y="1404" type="line"/>
      <point x="178" y="1404" type="line"/>
      <point x="178" y="449" type="line" smooth="yes"/>
      <point x="179" y="157"/>
      <point x="364" y="-19"/>
      <point x="658" y="-19" type="curve" smooth="yes"/>
      <point x="952" y="-19"/>
      <point x="1137" y="156"/>
      <point x="1137" y="453" type="curve" smooth="yes"/>
      <point x="1137" y="1404" type="line"/>
    </contour>
    <contour>
      <point x="691" y="1781" type="line"/>
      <point x="653" y="1781" type="line"/>
      <point x="431" y="1551" type="line"/>
      <point x="431" y="1537" type="line"/>
      <point x="493" y="1537" type="line"/>
      <point x="671" y="1726" type="line"/>
      <point x="851" y="1537" type="line"/>
      <point x="917" y="1537" type="line"/>
      <point x="917" y="1547" type="line"/>
    </contour>
  </outline>
</glyph>
<glyph name="Yacute" format="2">
  <advance width="1179"/>
  <unicode hex="00DD"/>
  <note>
uni00DD
</note>
  <outline>
    <contour>
      <point x="101" y="1404" type="line"/>
      <point x="32" y="1404" type="line"/>
      <point x="561" y="533" type="line"/>
      <point x="561" y="0" type="line"/>
      <point x="613" y="0" type="line"/>
      <point x="613" y="533" type="line"/>
      <point x="1142" y="1404" type="line"/>
      <point x="1079" y="1404" type="line"/>
      <point x="587" y="580" type="line"/>
    </contour>
    <contour>
      <point x="551" y="1532" type="line"/>
      <point x="609" y="1532" type="line"/>
      <point x="796" y="1789" type="line"/>
      <point x="733" y="1789" type="line"/>
    </contour>
  </outline>
</glyph>
<glyph name="germandbls" format="2">
  <advance width="1141"/>
  <unicode hex="00DF"/>
  <note>
uni00DF
</note>
  <outline>
    <contour>
      <point x="210" y="1111" type="line" smooth="yes"/>
      <point x="213" y="1322"/>
      <point x="305" y="1428"/>
      <point x="485" y="1428" type="curve" smooth="yes"/>
      <point x="607" y="1428"/>
      <point x="718" y="1329"/>
      <point x="718" y="1214" type="curve" smooth="yes"/>
      <point x="718" y="1155"/>
      <point x="699" y="1090"/>
      <point x="663" y="1017" type="curve" smooth="yes"/>
      <point x="627" y="944"/>
      <point x="609" y="872"/>
      <point x="609" y="801" type="curve" smooth="yes"/>
      <point x="609" y="710"/>
      <point x="659" y="638"/>
      <point x="792" y="541" type="curve" smooth="yes"/>
      <point x="925" y="443"/>
      <point x="972" y="379"/>
      <point x="972" y="295" type="curve" smooth="yes"/>
      <point x="972" y="146"/>
      <point x="836" y="31"/>
      <point x="663" y="31" type="curve" smooth="yes"/>
      <point x="569" y="31"/>
      <point x="450" y="68"/>
      <point x="394" y="113" type="curve"/>
      <point x="370" y="66" type="line"/>
      <point x="418" y="22"/>
      <point x="553" y="-20"/>
      <point x="670" y="-20" type="curve" smooth="yes"/>
      <point x="785" y="-20"/>
      <point x="907" y="36"/>
      <point x="974" y="130" type="curve" smooth="yes"/>
      <point x="1007" y="176"/>
      <point x="1024" y="228"/>
      <point x="1024" y="286" type="curve" smooth="yes"/>
      <point x="1024" y="389"/>
      <point x="970" y="470"/>
      <point x="840" y="567" type="curve" smooth="yes"/>
      <point x="710" y="664"/>
      <point x="661" y="723"/>
      <point x="661" y="799" type="curve" smooth="yes"/>
      <point x="661" y="872"/>
      <point x="680" y="943"/>
      <point x="718" y="1012" type="curve" smooth="yes"/>
      <point x="756" y="1081"/>
      <point x="775" y="1147"/>
      <point x="775" y="1212" type="curve" smooth="yes"/>
      <point x="775" y="1365"/>
      <point x="637" y="1480"/>
      <point x="476" y="1480" type="curve" smooth="yes"/>
      <point x="270" y="1480"/>
      <point x="158" y="1347"/>
      <point x="158" y="1102" type="curve" smooth="yes"/>
      <point x="158" y="0" type="line"/>
      <point x="210" y="0" type="line"/>
    </contour>
  </outline>
</glyph>
<glyph name="aacute" format="2">
  <advance width="1043"/>
  <unicode hex="00E1"/>
  <note>
uni00E1
</note>
  <outline>
    <contour>
      <point x="900" y="0" type="line"/>
      <point x="900" y="9" type="line"/>
      <point x="882" y="50"/>
      <point x="873" y="128"/>
      <point x="873" y="242" type="curve" smooth="yes"/>
      <point x="873" y="740" type="line" smooth="yes"/>
      <point x="869" y="945"/>
      <point x="728" y="1062"/>
      <point x="503" y="1062" type="curve" smooth="yes"/>
      <point x="287" y="1062"/>
      <point x="117" y="927"/>
      <point x="117" y="758" type="curve"/>
      <point x="169" y="756" type="line"/>
      <point x="169" y="900"/>
      <point x="312" y="1010"/>
      <point x="503" y="1010" type="curve" smooth="yes"/>
      <point x="707" y="1010"/>
      <point x="821" y="909"/>
      <point x="821" y="735" type="curve" smooth="yes"/>
      <point x="821" y="582" type="line"/>
      <point x="563" y="582" type="line" smooth="yes"/>
      <point x="277" y="580"/>
      <point x="89" y="456"/>
      <point x="89" y="264" type="curve" smooth="yes"/>
      <point x="89" y="96"/>
      <point x="217" y="-19"/>
      <point x="410" y="-19" type="curve" smooth="yes"/>
      <point x="590" y="-19"/>
      <point x="739" y="57"/>
      <point x="821" y="191" type="curve"/>
      <point x="821" y="108"/>
      <point x="827" y="44"/>
      <point x="840" y="0" type="curve"/>
    </contour>
    <contour>
      <point x="410" y="32" type="curve" smooth="yes"/>
      <point x="255" y="32"/>
      <point x="141" y="133"/>
      <point x="141" y="260" type="curve" smooth="yes"/>
      <point x="141" y="458"/>
      <point x="375" y="529"/>
      <point x="580" y="529" type="curve" smooth="yes"/>
      <point x="821" y="529" type="line"/>
      <point x="821" y="281" type="line"/>
      <point x="750" y="123"/>
      <point x="606" y="32"/>
    </contour>
    <contour>
      <point x="523" y="1224" type="line"/>
      <point x="581" y="1224" type="line"/>
      <point x="768" y="1481" type="line"/>
      <point x="705" y="1481" type="line"/>
    </contour>
  </outline>
</glyph>
<glyph name="adieresis" format="2">
  <advance width="1043"/>
  <unicode hex="00E4"/>
  <note>
uni00E4
</note>
  <outline>
    <contour>
      <point x="900" y="0" type="line"/>
      <point x="900" y="9" type="line"/>
      <point x="882" y="50"/>
      <point x="873" y="128"/>
      <point x="873" y="242" type="curve" smooth="yes"/>
      <point x="873" y="740" type="line" smooth="yes"/>
      <point x="869" y="945"/>
      <point x="728" y="1062"/>
      <point x="503" y="1062" type="curve" smooth="yes"/>
      <point x="287" y="1062"/>
      <point x="117" y="927"/>
      <point x="117" y="758" type="curve"/>
      <point x="169" y="756" type="line"/>
      <point x="169" y="900"/>
      <point x="312" y="1010"/>
      <point x="503" y="1010" type="curve" smooth="yes"/>
      <point x="707" y="1010"/>
      <point x="821" y="909"/>
      <point x="821" y="735" type="curve" smooth="yes"/>
      <point x="821" y="582" type="line"/>
      <point x="563" y="582" type="line" smooth="yes"/>
      <point x="277" y="580"/>
      <point x="89" y="456"/>
      <point x="89" y="264" type="curve" smooth="yes"/>
      <point x="89" y="96"/>
      <point x="217" y="-19"/>
      <point x="410" y="-19" type="curve" smooth="yes"/>
      <point x="590" y="-19"/>
      <point x="739" y="57"/>
      <point x="821" y="191" type="curve"/>
      <point x="821" y="108"/>
      <point x="827" y="44"/>
      <point x="840" y="0" type="curve"/>
    </contour>
    <contour>
      <point x="410" y="32" type="curve" smooth="yes"/>
      <point x="255" y="32"/>
      <point x="141" y="133"/>
      <point x="141" y="260" type="curve" smooth="yes"/>
      <point x="141" y="458"/>
      <point x="375" y="529"/>
      <point x="580" y="529" type="curve" smooth="yes"/>
      <point x="821" y="529" type="line"/>
      <point x="821" y="281" type="line"/>
      <point x="750" y="123"/>
      <point x="606" y="32"/>
    </contour>
    <contour>
      <point x="292" y="1370" type="curve" smooth="yes"/>
      <point x="292" y="1340"/>
      <point x="316" y="1317"/>
      <point x="345" y="1317" type="curve" smooth="yes"/>
      <point x="375" y="1317"/>
      <point x="399" y="1340"/>
      <point x="399" y="1370" type="curve" smooth="yes"/>
      <point x="399" y="1399"/>
      <point x="375" y="1424"/>
      <point x="345" y="1424" type="curve" smooth="yes"/>
      <point x="316" y="1424"/>
      <point x="292" y="1399"/>
    </contour>
    <contour>
      <point x="721" y="1370" type="curve" smooth="yes"/>
      <point x="721" y="1340"/>
      <point x="744" y="1317"/>
      <point x="774" y="1317" type="curve" smooth="yes"/>
      <point x="804" y="1317"/>
      <point x="828" y="1340"/>
      <point x="828" y="1370" type="curve" smooth="yes"/>
      <point x="828" y="1399"/>
      <point x="804" y="1424"/>
      <point x="774" y="1424" type="curve" smooth="yes"/>
      <point x="744" y="1424"/>
      <point x="721" y="1399"/>
    </contour>
  </outline>
</glyph>
<glyph name="ccedilla" format="2">
  <advance width="1002"/>
  <unicode hex="00E7"/>
  <note>
uni00E7
</note>
  <outline>
    <contour>
      <point x="520" y="33" type="curve" smooth="yes"/>
      <point x="288" y="33"/>
      <point x="146" y="210"/>
      <point x="146" y="501" type="curve" smooth="yes"/>
      <point x="146" y="535" type="line" smooth="yes"/>
      <point x="146" y="833"/>
      <point x="286" y="1010"/>
      <point x="518" y="1010" type="curve" smooth="yes"/>
      <point x="712" y="1010"/>
      <point x="846" y="887"/>
      <point x="855" y="699" type="curve"/>
      <point x="907" y="699" type="line"/>
      <point x="898" y="919"/>
      <point x="739" y="1062"/>
      <point x="518" y="1062" type="curve" smooth="yes"/>
      <point x="260" y="1062"/>
      <point x="94" y="858"/>
      <point x="94" y="542" type="curve" smooth="yes"/>
      <point x="94" y="507" type="line" smooth="yes"/>
      <point x="94" y="183"/>
      <point x="259" y="-19"/>
      <point x="520" y="-19" type="curve" smooth="yes"/>
      <point x="735" y="-19"/>
      <point x="897" y="114"/>
      <point x="907" y="316" type="curve"/>
      <point x="855" y="316" type="line"/>
      <point x="843" y="139"/>
      <point x="709" y="33"/>
    </contour>
    <contour>
      <point x="507" y="-9" type="line"/>
      <point x="483" y="-126" type="line"/>
      <point x="627" y="-141"/>
      <point x="665" y="-173"/>
      <point x="665" y="-245" type="curve" smooth="yes"/>
      <point x="665" y="-325"/>
      <point x="567" y="-381"/>
      <point x="437" y="-381" type="curve"/>
      <point x="444" y="-428" type="line"/>
      <point x="615" y="-428"/>
      <point x="718" y="-354"/>
      <point x="718" y="-245" type="curve" smooth="yes"/>
      <point x="718" y="-147"/>
      <point x="662" y="-93"/>
      <point x="548" y="-82" type="curve"/>
      <point x="558" y="-9" type="line"/>
    </contour>
  </outline>
</glyph>
<glyph name="ecircumflex" format="2">
  <advance width="995"/>
  <unicode hex="00EA"/>
  <note>
uni00EA
</note>
  <outline>
    <contour>
      <point x="541" y="-19" type="curve" smooth="yes"/>
      <point x="694" y="-19"/>
      <point x="810" y="37"/>
      <point x="887" y="149" type="curve"/>
      <point x="851" y="175" type="line"/>
      <point x="775" y="78"/>
      <point x="681" y="32"/>
      <point x="541" y="32" type="curve" smooth="yes"/>
      <point x="281" y="32"/>
      <point x="136" y="258"/>
      <point x="136" y="556" type="curve"/>
      <point x="918" y="556" type="line"/>
      <point x="918" y="611" type="line" smooth="yes"/>
      <point x="918" y="881"/>
      <point x="755" y="1062"/>
      <point x="522" y="1062" type="curve" smooth="yes"/>
      <point x="253" y="1062"/>
      <point x="84" y="811"/>
      <point x="84" y="542" type="curve" smooth="yes"/>
      <point x="84" y="498" type="line" smooth="yes"/>
      <point x="84" y="217"/>
      <point x="273" y="-19"/>
    </contour>
    <contour>
      <point x="522" y="1010" type="curve" smooth="yes"/>
      <point x="735" y="1010"/>
      <point x="866" y="824"/>
      <point x="866" y="621" type="curve" smooth="yes"/>
      <point x="866" y="608" type="line"/>
      <point x="139" y="608" type="line"/>
      <point x="164" y="842"/>
      <point x="319" y="1010"/>
    </contour>
    <contour>
      <point x="568" y="1461" type="line"/>
      <point x="530" y="1461" type="line"/>
      <point x="308" y="1231" type="line"/>
      <point x="308" y="1217" type="line"/>
      <point x="370" y="1217" type="line"/>
      <point x="548" y="1406" type="line"/>
      <point x="728" y="1217" type="line"/>
      <point x="794" y="1217" type="line"/>
      <point x="794" y="1227" type="line"/>
    </contour>
  </outline>
</glyph>
<glyph name="edieresis" format="2">
  <advance width="995"/>
  <unicode hex="00EB"/>
  <note>
uni00EB
</note>
  <outline>
    <contour>
      <point x="541" y="-19" type="curve" smooth="yes"/>
      <point x="694" y="-19"/>
      <point x="810" y="37"/>
      <point x="887" y="149" type="curve"/>
      <point x="851" y="175" type="line"/>
      <point x="775" y="78"/>
      <point x="681" y="32"/>
      <point x="541" y="32" type="curve" smooth="yes"/>
      <point x="281" y="32"/>
      <point x="136" y="258"/>
      <point x="136" y="556" type="curve"/>
      <point x="918" y="556" type="line"/>
      <point x="918" y="611" type="line" smooth="yes"/>
      <point x="918" y="881"/>
      <point x="755" y="1062"/>
      <point x="522" y="1062" type="curve" smooth="yes"/>
      <point x="253" y="1062"/>
      <point x="84" y="811"/>
      <point x="84" y="542" type="curve" smooth="yes"/>
      <point x="84" y="498" type="line" smooth="yes"/>
      <point x="84" y="217"/>
      <point x="273" y="-19"/>
    </contour>
    <contour>
      <point x="522" y="1010" type="curve" smooth="yes"/>
      <point x="735" y="1010"/>
      <point x="866" y="824"/>
      <point x="866" y="621" type="curve" smooth="yes"/>
      <point x="866" y="608" type="line"/>
      <point x="139" y="608" type="line"/>
      <point x="164" y="842"/>
      <point x="319" y="1010"/>
    </contour>
    <contour>
      <point x="283" y="1369" type="curve" smooth="yes"/>
      <point x="283" y="1339"/>
      <point x="307" y="1316"/>
      <point x="336" y="1316" type="curve" smooth="yes"/>
      <point x="366" y="1316"/>
      <point x="390" y="1339"/>
      <point x="390" y="1369" type="curve" smooth="yes"/>
      <point x="390" y="1398"/>
      <point x="366" y="1423"/>
      <point x="336" y="1423" type="curve" smooth="yes"/>
      <point x="307" y="1423"/>
      <point x="283" y="1398"/>
    </contour>
    <contour>
      <point x="712" y="1369" type="curve" smooth="yes"/>
      <point x="712" y="1339"/>
      <point x="735" y="1316"/>
      <point x="765" y="1316" type="curve" smooth="yes"/>
      <point x="795" y="1316"/>
      <point x="819" y="1339"/>
      <point x="819" y="1369" type="curve" smooth="yes"/>
      <point x="819" y="1398"/>
      <point x="795" y="1423"/>
      <point x="765" y="1423" type="curve" smooth="yes"/>
      <point x="735" y="1423"/>
      <point x="712" y="1398"/>
    </contour>
  </outline>
</glyph>
<glyph name="igrave" format="2">
  <advance width="391"/>
  <unicode hex="00EC"/>
  <note>
uni00EC
</note>
  <outline>
    <contour>
      <point x="230" y="1043" type="line"/>
      <point x="178" y="1043" type="line"/>
      <point x="178" y="0" type="line"/>
      <point x="230" y="0" type="line"/>
    </contour>
    <contour>
      <point x="63" y="1458" type="line"/>
      <point x="-1" y="1458" type="line"/>
      <point x="187" y="1201" type="line"/>
      <point x="244" y="1201" type="line"/>
    </contour>
  </outline>
</glyph>
<glyph name="icircumflex" format="2">
  <advance width="391"/>
  <unicode hex="00EE"/>
  <note>
uni00EE
</note>
  <outline>
    <contour>
      <point x="226" y="1043" type="line"/>
      <point x="174" y="1043" type="line"/>
      <point x="174" y="0" type="line"/>
      <point x="226" y="0" type="line"/>
    </contour>
    <contour>
      <point x="221" y="1439" type="line"/>
      <point x="183" y="1439" type="line"/>
      <point x="-39" y="1209" type="line"/>
      <point x="-39" y="1195" type="line"/>
      <point x="23" y="1195" type="line"/>
      <point x="201" y="1384" type="line"/>
      <point x="381" y="1195" type="line"/>
      <point x="447" y="1195" type="line"/>
      <point x="447" y="1205" type="line"/>
    </contour>
  </outline>
</glyph>
<glyph name="idieresis" format="2">
  <advance width="391"/>
  <unicode hex="00EF"/>
  <note>
uni00EF
</note>
  <outline>
    <contour>
      <point x="226" y="1043" type="line"/>
      <point x="174" y="1043" type="line"/>
      <point x="174" y="0" type="line"/>
      <point x="226" y="0" type="line"/>
    </contour>
    <contour>
      <point x="-64" y="1347" type="curve" smooth="yes"/>
      <point x="-64" y="1317"/>
      <point x="-40" y="1294"/>
      <point x="-11" y="1294" type="curve" smooth="yes"/>
      <point x="19" y="1294"/>
      <point x="43" y="1317"/>
      <point x="43" y="1347" type="curve" smooth="yes"/>
      <point x="43" y="1376"/>
      <point x="19" y="1401"/>
      <point x="-11" y="1401" type="curve" smooth="yes"/>
      <point x="-40" y="1401"/>
      <point x="-64" y="1376"/>
    </contour>
    <contour>
      <point x="365" y="1347" type="curve" smooth="yes"/>
      <point x="365" y="1317"/>
      <point x="388" y="1294"/>
      <point x="418" y="1294" type="curve" smooth="yes"/>
      <point x="448" y="1294"/>
      <point x="472" y="1317"/>
      <point x="472" y="1347" type="curve" smooth="yes"/>
      <point x="472" y="1376"/>
      <point x="448" y="1401"/>
      <point x="418" y="1401" type="curve" smooth="yes"/>
      <point x="388" y="1401"/>
      <point x="365" y="1376"/>
    </contour>
  </outline>
</glyph>
<glyph name="ntilde" format="2">
  <advance width="1081"/>
  <unicode hex="00F1"/>
  <note>
uni00F1
</note>
  <outline>
    <contour>
      <point x="166" y="1043" type="line"/>
      <point x="166" y="0" type="line"/>
      <point x="218" y="0" type="line"/>
      <point x="218" y="668" type="line"/>
      <point x="264" y="870"/>
      <point x="405" y="1011"/>
      <point x="585" y="1011" type="curve" smooth="yes"/>
      <point x="781" y="1011"/>
      <point x="866" y="906"/>
      <point x="868" y="683" type="curve" smooth="yes"/>
      <point x="868" y="0" type="line"/>
      <point x="920" y="0" type="line"/>
      <point x="920" y="681" type="line" smooth="yes"/>
      <point x="919" y="936"/>
      <point x="812" y="1062"/>
      <point x="588" y="1062" type="curve" smooth="yes"/>
      <point x="428" y="1062"/>
      <point x="286" y="962"/>
      <point x="218" y="800" type="curve"/>
      <point x="218" y="1043" type="line"/>
    </contour>
    <contour>
      <point x="821" y="1431" type="line"/>
      <point x="821" y="1355"/>
      <point x="774" y="1305"/>
      <point x="705" y="1305" type="curve" smooth="yes"/>
      <point x="601" y="1305"/>
      <point x="556" y="1424"/>
      <point x="428" y="1424" type="curve" smooth="yes"/>
      <point x="330" y="1424"/>
      <point x="258" y="1355"/>
      <point x="258" y="1252" type="curve"/>
      <point x="311" y="1252" type="line"/>
      <point x="311" y="1325"/>
      <point x="356" y="1372"/>
      <point x="428" y="1372" type="curve" smooth="yes"/>
      <point x="468" y="1372"/>
      <point x="511" y="1352"/>
      <point x="557" y="1312" type="curve" smooth="yes"/>
      <point x="604" y="1272"/>
      <point x="653" y="1252"/>
      <point x="705" y="1252" type="curve" smooth="yes"/>
      <point x="801" y="1252"/>
      <point x="874" y="1326"/>
      <point x="874" y="1431" type="curve"/>
    </contour>
  </outline>
</glyph>
<glyph name="odieresis" format="2">
  <advance width="1087"/>
  <unicode hex="00F6"/>
  <note>
uni00F6
</note>
  <outline>
    <contour>
      <point x="87" y="495" type="line" smooth="yes"/>
      <point x="89" y="194"/>
      <point x="275" y="-19"/>
      <point x="545" y="-19" type="curve" smooth="yes"/>
      <point x="826" y="-19"/>
      <point x="1000" y="209"/>
      <point x="1000" y="501" type="curve" smooth="yes"/>
      <point x="1000" y="548" type="line" smooth="yes"/>
      <point x="999" y="832"/>
      <point x="827" y="1062"/>
      <point x="543" y="1062" type="curve" smooth="yes"/>
      <point x="261" y="1062"/>
      <point x="87" y="832"/>
      <point x="87" y="542" type="curve" smooth="yes"/>
    </contour>
    <contour>
      <point x="139" y="532" type="line" smooth="yes"/>
      <point x="139" y="807"/>
      <point x="305" y="1010"/>
      <point x="543" y="1010" type="curve" smooth="yes"/>
      <point x="795" y="1010"/>
      <point x="948" y="787"/>
      <point x="948" y="542" type="curve" smooth="yes"/>
      <point x="948" y="512" type="line" smooth="yes"/>
      <point x="948" y="230"/>
      <point x="783" y="33"/>
      <point x="545" y="33" type="curve" smooth="yes"/>
      <point x="289" y="33"/>
      <point x="139" y="255"/>
      <point x="139" y="501" type="curve" smooth="yes"/>
    </contour>
    <contour>
      <point x="281" y="1368" type="curve" smooth="yes"/>
      <point x="281" y="1338"/>
      <point x="305" y="1315"/>
      <point x="334" y="1315" type="curve" smooth="yes"/>
      <point x="364" y="1315"/>
      <point x="388" y="1338"/>
      <point x="388" y="1368" type="curve" smooth="yes"/>
      <point x="388" y="1397"/>
      <point x="364" y="1422"/>
      <point x="334" y="1422" type="curve" smooth="yes"/>
      <point x="305" y="1422"/>
      <point x="281" y="1397"/>
    </contour>
    <contour>
      <point x="710" y="1368" type="curve" smooth="yes"/>
      <point x="710" y="1338"/>
      <point x="733" y="1315"/>
      <point x="763" y="1315" type="curve" smooth="yes"/>
      <point x="793" y="1315"/>
      <point x="817" y="1338"/>
      <point x="817" y="1368" type="curve" smooth="yes"/>
      <point x="817" y="1397"/>
      <point x="793" y="1422"/>
      <point x="763" y="1422" type="curve" smooth="yes"/>
      <point x="733" y="1422"/>
      <point x="710" y="1397"/>
    </contour>
  </outline>
</glyph>
<glyph name="udieresis" format="2">
  <advance width="1081"/>
  <unicode hex="00FC"/>
  <note>
uni00FC
</note>
  <outline>
    <contour>
      <point x="865" y="0" type="line"/>
      <point x="918" y="0" type="line"/>
      <point x="918" y="1043" type="line"/>
      <point x="865" y="1043" type="line"/>
      <point x="865" y="309" type="line"/>
      <point x="831" y="128"/>
      <point x="703" y="33"/>
      <point x="503" y="33" type="curve" smooth="yes"/>
      <point x="316" y="33"/>
      <point x="217" y="148"/>
      <point x="214" y="369" type="curve" smooth="yes"/>
      <point x="214" y="1043" type="line"/>
      <point x="162" y="1043" type="line"/>
      <point x="162" y="371" type="line" smooth="yes"/>
      <point x="165" y="117"/>
      <point x="278" y="-19"/>
      <point x="505" y="-19" type="curve" smooth="yes"/>
      <point x="687" y="-19"/>
      <point x="803" y="53"/>
      <point x="865" y="169" type="curve"/>
    </contour>
    <contour>
      <point x="294" y="1370" type="curve" smooth="yes"/>
      <point x="294" y="1340"/>
      <point x="318" y="1317"/>
      <point x="347" y="1317" type="curve" smooth="yes"/>
      <point x="377" y="1317"/>
      <point x="401" y="1340"/>
      <point x="401" y="1370" type="curve" smooth="yes"/>
      <point x="401" y="1399"/>
      <point x="377" y="1424"/>
      <point x="347" y="1424" type="curve" smooth="yes"/>
      <point x="318" y="1424"/>
      <point x="294" y="1399"/>
    </contour>
    <contour>
      <point x="723" y="1370" type="curve" smooth="yes"/>
      <point x="723" y="1340"/>
      <point x="746" y="1317"/>
      <point x="776" y="1317" type="curve" smooth="yes"/>
      <point x="806" y="1317"/>
      <point x="830" y="1340"/>
      <point x="830" y="1370" type="curve" smooth="yes"/>
      <point x="830" y="1399"/>
      <point x="806" y="1424"/>
      <point x="776" y="1424" type="curve" smooth="yes"/>
      <point x="746" y="1424"/>
      <point x="723" y="1399"/>
    </contour>
  </outline>
</glyph>
<glyph name="ydieresis" format="2">
  <advance width="943"/>
  <unicode hex="00FF"/>
  <note>
uni00FF
</note>
  <outline>
    <contour>
      <point x="98" y="1043" type="line"/>
      <point x="41" y="1043" type="line"/>
      <point x="457" y="6" type="line"/>
      <point x="393" y="-167" type="line" smooth="yes"/>
      <point x="340" y="-311"/>
      <point x="273" y="-370"/>
      <point x="163" y="-370" type="curve"/>
      <point x="93" y="-362" type="line"/>
      <point x="94" y="-411" type="line"/>
      <point x="108" y="-418"/>
      <point x="134" y="-421"/>
      <point x="171" y="-421" type="curve" smooth="yes"/>
      <point x="287" y="-421"/>
      <point x="370" y="-361"/>
      <point x="420" y="-239" type="curve" smooth="yes"/>
      <point x="443" y="-181" type="line"/>
      <point x="910" y="1043" type="line"/>
      <point x="852" y="1043" type="line"/>
      <point x="484" y="81" type="line"/>
    </contour>
    <contour>
      <point x="235" y="1370" type="curve" smooth="yes"/>
      <point x="235" y="1340"/>
      <point x="259" y="1317"/>
      <point x="288" y="1317" type="curve" smooth="yes"/>
      <point x="318" y="1317"/>
      <point x="342" y="1340"/>
      <point x="342" y="1370" type="curve" smooth="yes"/>
      <point x="342" y="1399"/>
      <point x="318" y="1424"/>
      <point x="288" y="1424" type="curve" smooth="yes"/>
      <point x="259" y="1424"/>
      <point x="235" y="1399"/>
    </contour>
    <contour>
      <point x="664" y="1370" type="curve" smooth="yes"/>
      <point x="664" y="1340"/>
      <point x="687" y="1317"/>
      <point x="717" y="1317" type="curve" smooth="yes"/>
      <point x="747" y="1317"/>
      <point x="771" y="1340"/>
      <point x="771" y="1370" type="curve" smooth="yes"/>
      <point x="771" y="1399"/>
      <point x="747" y="1424"/>
      <point x="717" y="1424" type="curve" smooth="yes"/>
      <point x="687" y="1424"/>
      <point x="664" y="1399"/>
    </contour>
  </outline>
</glyph>
<glyph name="lslash" format="2">
  <advance width="487"/>
  <unicode hex="0142"/>
  <note>
uni0142
</note>
  <outline>
    <contour>
      <point x="276" y="1481" type="line"/>
      <point x="224" y="1481" type="line"/>
      <point x="224" y="798" type="line"/>
      <point x="16" y="716" type="line"/>
      <point x="16" y="659" type="line"/>
      <point x="224" y="741" type="line"/>
      <point x="224" y="0" type="line"/>
      <point x="276" y="0" type="line"/>
      <point x="276" y="763" type="line"/>
      <point x="470" y="840" type="line"/>
      <point x="470" y="897" type="line"/>
      <point x="276" y="819" type="line"/>
    </contour>
  </outline>
</glyph>
<glyph name="OE" format="2">
  <advance width="1805"/>
  <unicode hex="0152"/>
  <note>
uni0152
</note>
  <outline>
    <contour>
      <point x="1736" y="52" type="line"/>
      <point x="934" y="52" type="line"/>
      <point x="934" y="696" type="line"/>
      <point x="1638" y="696" type="line"/>
      <point x="1638" y="748" type="line"/>
      <point x="934" y="748" type="line"/>
      <point x="934" y="1352" type="line"/>
      <point x="1736" y="1352" type="line"/>
      <point x="1736" y="1404" type="line"/>
      <point x="926" y="1404" type="line"/>
      <point x="804" y="1416"/>
      <point x="697" y="1423"/>
      <point x="606" y="1423" type="curve" smooth="yes"/>
      <point x="310" y="1423"/>
      <point x="108" y="1188"/>
      <point x="108" y="848" type="curve" smooth="yes"/>
      <point x="108" y="545" type="line" smooth="yes"/>
      <point x="112" y="213"/>
      <point x="313" y="-20"/>
      <point x="608" y="-20" type="curve" smooth="yes"/>
      <point x="692" y="-20"/>
      <point x="798" y="-13"/>
      <point x="926" y="0" type="curve"/>
      <point x="1736" y="0" type="line"/>
    </contour>
    <contour>
      <point x="608" y="32" type="curve" smooth="yes"/>
      <point x="327" y="32"/>
      <point x="160" y="261"/>
      <point x="160" y="555" type="curve" smooth="yes"/>
      <point x="160" y="844" type="line" smooth="yes"/>
      <point x="160" y="1167"/>
      <point x="337" y="1371"/>
      <point x="606" y="1371" type="curve" smooth="yes"/>
      <point x="721" y="1371"/>
      <point x="813" y="1367"/>
      <point x="882" y="1358" type="curve"/>
      <point x="882" y="44" type="line"/>
      <point x="814" y="36"/>
      <point x="722" y="32"/>
    </contour>
  </outline>
</glyph>
<glyph name="scaron" format="2">
  <advance width="982"/>
  <unicode hex="0161"/>
  <note>
uni0161
</note>
  <outline>
    <contour>
      <point x="809" y="255" type="curve" smooth="yes"/>
      <point x="809" y="132"/>
      <point x="681" y="33"/>
      <point x="495" y="33" type="curve" smooth="yes"/>
      <point x="292" y="33"/>
      <point x="167" y="119"/>
      <point x="157" y="265" type="curve"/>
      <point x="104" y="265" type="line"/>
      <point x="104" y="98"/>
      <point x="261" y="-19"/>
      <point x="495" y="-19" type="curve" smooth="yes"/>
      <point x="713" y="-19"/>
      <point x="861" y="90"/>
      <point x="861" y="254" type="curve" smooth="yes"/>
      <point x="861" y="453"/>
      <point x="696" y="514"/>
      <point x="514" y="556" type="curve" smooth="yes"/>
      <point x="352" y="594"/>
      <point x="190" y="635"/>
      <point x="190" y="801" type="curve" smooth="yes"/>
      <point x="190" y="921"/>
      <point x="305" y="1010"/>
      <point x="487" y="1010" type="curve" smooth="yes"/>
      <point x="677" y="1010"/>
      <point x="807" y="905"/>
      <point x="807" y="764" type="curve"/>
      <point x="860" y="764" type="line"/>
      <point x="860" y="947"/>
      <point x="712" y="1062"/>
      <point x="487" y="1062" type="curve" smooth="yes"/>
      <point x="280" y="1062"/>
      <point x="138" y="952"/>
      <point x="138" y="799" type="curve" smooth="yes"/>
      <point x="138" y="647"/>
      <point x="226" y="569"/>
      <point x="485" y="514" type="curve" smooth="yes"/>
      <point x="701" y="468"/>
      <point x="809" y="382"/>
    </contour>
    <contour>
      <point x="306" y="1454" type="line"/>
      <point x="251" y="1454" type="line"/>
      <point x="251" y="1443" type="line"/>
      <point x="464" y="1200" type="line"/>
      <point x="520" y="1200" type="line"/>
      <point x="731" y="1441" type="line"/>
      <point x="731" y="1454" type="line"/>
      <point x="680" y="1454" type="line"/>
      <point x="492" y="1245" type="line"/>
    </contour>
  </outline>
</glyph>
<glyph name="Ydieresis" format="2">
  <advance width="1179"/>
  <unicode hex="0178"/>
  <note>
uni0178
</note>
  <outline>
    <contour>
      <point x="101" y="1404" type="line"/>
      <point x="32" y="1404" type="line"/>
      <point x="561" y="533" type="line"/>
      <point x="561" y="0" type="line"/>
      <point x="613" y="0" type="line"/>
      <point x="613" y="533" type="line"/>
      <point x="1142" y="1404" type="line"/>
      <point x="1079" y="1404" type="line"/>
      <point x="587" y="580" type="line"/>
    </contour>
    <contour>
      <point x="320" y="1678" type="curve" smooth="yes"/>
      <point x="320" y="1648"/>
      <point x="344" y="1625"/>
      <point x="373" y="1625" type="curve" smooth="yes"/>
      <point x="403" y="1625"/>
      <point x="427" y="1648"/>
      <point x="427" y="1678" type="curve" smooth="yes"/>
      <point x="427" y="1707"/>
      <point x="403" y="1732"/>
      <point x="373" y="1732" type="curve" smooth="yes"/>
      <point x="344" y="1732"/>
      <point x="320" y="1707"/>
    </contour>
    <contour>
      <point x="749" y="1678" type="curve" smooth="yes"/>
      <point x="749" y="1648"/>
      <point x="772" y="1625"/>
      <point x="802" y="1625" type="curve" smooth="yes"/>
      <point x="832" y="1625"/>
      <point x="856" y="1648"/>
      <point x="856" y="1678" type="curve" smooth="yes"/>
      <point x="856" y="1707"/>
      <point x="832" y="1732"/>
      <point x="802" y="1732" type="curve" smooth="yes"/>
      <point x="772" y="1732"/>
      <point x="749" y="1707"/>
    </contour>
  </outline>
</glyph>
<glyph name="question-ar" format="2">
  <advance width="1155"/>
  <unicode hex="061F"/>
  <outline>
    <contour>
      <point x="618" y="362" type="curve" smooth="yes"/>
      <point x="617" y="595"/>
      <point x="552" y="685"/>
      <point x="430.431" y="758.262" type="curve"/>
      <point x="365.07" y="797.686"/>
      <point x="158" y="879.062"/>
      <point x="158" y="1133" type="curve"/>
      <point x="158" y="1428.588"/>
      <point x="425.841" y="1505"/>
      <point x="554" y="1505" type="curve"/>
      <point x="843" y="1505"/>
      <point x="967" y="1290"/>
      <point x="1011" y="1194" type="curve" smooth="yes"/>
      <point x="1013" y="1191"/>
      <point x="1015" y="1191"/>
      <point x="1018" y="1192" type="curve" smooth="yes"/>
      <point x="1031" y="1195"/>
      <point x="1042" y="1202"/>
      <point x="1053" y="1215" type="curve" smooth="yes"/>
      <point x="1055" y="1217"/>
      <point x="1056" y="1219"/>
      <point x="1055" y="1222" type="curve" smooth="yes"/>
      <point x="1009" y="1313"/>
      <point x="875" y="1557"/>
      <point x="554" y="1557" type="curve"/>
      <point x="412.159" y="1557"/>
      <point x="106" y="1469.412"/>
      <point x="106" y="1133" type="curve"/>
      <point x="106" y="844.938"/>
      <point x="342.93" y="750.314"/>
      <point x="403.569" y="713.738" type="curve"/>
      <point x="512" y="648"/>
      <point x="565" y="574"/>
      <point x="566" y="362" type="curve" smooth="yes"/>
      <point x="566" y="359"/>
      <point x="568" y="358"/>
      <point x="571" y="357" type="curve" smooth="yes"/>
      <point x="585" y="354"/>
      <point x="599" y="354"/>
      <point x="613" y="357" type="curve" smooth="yes"/>
      <point x="616" y="358"/>
      <point x="618" y="359"/>
    </contour>
    <component base="period" xOffset="407"/>
  </outline>
</glyph>
<glyph name="alefHamzaabove-ar" format="2">
  <advance width="240"/>
  <unicode hex="0623"/>
  <anchor x="100" y="-143" name="bottom"/>
  <anchor x="49" y="1859" name="top"/>
  <outline>
    <contour>
      <point x="134" y="5" type="curve" smooth="yes"/>
      <point x="134" y="1278" type="line" smooth="yes"/>
      <point x="134" y="1281"/>
      <point x="131" y="1283"/>
      <point x="128" y="1282" type="curve" smooth="yes"/>
      <point x="113" y="1278"/>
      <point x="99" y="1272"/>
      <point x="86" y="1262" type="curve"/>
      <point x="84" y="1261"/>
      <point x="82" y="1258"/>
      <point x="82" y="1256" type="curve" smooth="yes"/>
      <point x="82" y="5" type="line" smooth="yes"/>
      <point x="82" y="2"/>
      <point x="84" y="0"/>
      <point x="87" y="0" type="curve" smooth="yes"/>
      <point x="129" y="0" type="line" smooth="yes"/>
      <point x="132" y="0"/>
      <point x="134" y="2"/>
    </contour>
    <component base="_smallhamza" xOffset="52" yOffset="1556" identifier="2DA6BBBA"/>
  </outline>
</glyph>
<glyph name="alef-ar" format="2">
  <advance width="216"/>
  <unicode hex="0627"/>
  <anchor x="103" y="-171" name="bottom"/>
  <anchor x="79" y="1560" name="top"/>
  <outline>
    <contour>
      <point x="134" y="5" type="curve" smooth="yes"/>
      <point x="134" y="1513" type="line" smooth="yes"/>
      <point x="134" y="1516"/>
      <point x="131" y="1518"/>
      <point x="128" y="1517" type="curve" smooth="yes"/>
      <point x="113" y="1513"/>
      <point x="99" y="1507"/>
      <point x="86" y="1497" type="curve"/>
      <point x="84" y="1496"/>
      <point x="82" y="1493"/>
      <point x="82" y="1491" type="curve" smooth="yes"/>
      <point x="82" y="5" type="line" smooth="yes"/>
      <point x="82" y="2"/>
      <point x="84" y="0"/>
      <point x="87" y="0" type="curve" smooth="yes"/>
      <point x="129" y="0" type="line" smooth="yes"/>
      <point x="132" y="0"/>
      <point x="134" y="2"/>
    </contour>
  </outline>
</glyph>
<glyph name="sad-ar" format="2">
  <advance width="2371"/>
  <unicode hex="0635"/>
  <anchor x="1186" y="-200" name="bottom"/>
  <anchor x="664" y="1003" name="top"/>
  <outline>
    <contour>
      <point x="951" y="-187" type="line" smooth="yes"/>
      <point x="1114" y="-187"/>
      <point x="1194" y="-123"/>
      <point x="1195" y="52" type="curve" smooth="yes"/>
      <point x="1200" y="990" type="line" smooth="yes"/>
      <point x="1200" y="994"/>
      <point x="1198" y="996"/>
      <point x="1195" y="996" type="curve" smooth="yes"/>
      <point x="1180" y="996"/>
      <point x="1166" y="992"/>
      <point x="1153" y="984" type="curve" smooth="yes"/>
      <point x="1150" y="982"/>
      <point x="1148" y="980"/>
      <point x="1148" y="977" type="curve" smooth="yes"/>
      <point x="1148" y="52" type="line" smooth="yes"/>
      <point x="1148" y="-87"/>
      <point x="1096" y="-135"/>
      <point x="951" y="-135" type="curve" smooth="yes"/>
      <point x="656" y="-135" type="line" smooth="yes"/>
      <point x="261" y="-135"/>
      <point x="139" y="150"/>
      <point x="134" y="311" type="curve" smooth="yes"/>
      <point x="131" y="410"/>
      <point x="151" y="509"/>
      <point x="236" y="654" type="curve" smooth="yes"/>
      <point x="238" y="658"/>
      <point x="237" y="659"/>
      <point x="232" y="658" type="curve" smooth="yes"/>
      <point x="211" y="653"/>
      <point x="188" y="641"/>
      <point x="161" y="620" type="curve"/>
      <point x="159" y="619"/>
      <point x="158" y="617"/>
      <point x="156" y="615" type="curve"/>
      <point x="110" y="544"/>
      <point x="79" y="427"/>
      <point x="82" y="309" type="curve" smooth="yes"/>
      <point x="86" y="130"/>
      <point x="225" y="-187"/>
      <point x="656" y="-187" type="curve" smooth="yes"/>
    </contour>
    <component base="_sadkufihead" xOffset="1182" identifier="7D823D50"/>
  </outline>
</glyph>
<glyph name="waw-ar" format="2">
  <advance width="1026"/>
  <unicode hex="0648"/>
  <anchor x="285" y="-444" name="bottom"/>
  <anchor x="466" y="1136" name="top"/>
  <outline>
    <component base="_roundhead" xOffset="70" identifier="F48CEC1B"/>
    <contour>
      <point x="944" y="52" type="curve"/>
      <point x="892" y="52" type="line"/>
      <point x="892" y="-225"/>
      <point x="741" y="-352"/>
      <point x="655" y="-413" type="curve" smooth="yes"/>
      <point x="652" y="-415"/>
      <point x="652" y="-417"/>
      <point x="654" y="-420" type="curve" smooth="yes"/>
      <point x="661" y="-432"/>
      <point x="671" y="-441"/>
      <point x="684" y="-447" type="curve" smooth="yes"/>
      <point x="686" y="-448"/>
      <point x="688" y="-449"/>
      <point x="691" y="-447" type="curve" smooth="yes"/>
      <point x="778" y="-385"/>
      <point x="944" y="-252"/>
    </contour>
  </outline>
</glyph>
<glyph name="damma-ar" format="2">
  <advance width="0"/>
  <unicode hex="064F"/>
  <anchor x="0" y="11" name="_top"/>
  <outline>
    <contour>
      <point x="65" y="106" type="curve" smooth="yes"/>
      <point x="143" y="160"/>
      <point x="176" y="197"/>
      <point x="177" y="279" type="curve" smooth="yes"/>
      <point x="177" y="355"/>
      <point x="122" y="455"/>
      <point x="2" y="455" type="curve" smooth="yes"/>
      <point x="-89" y="455"/>
      <point x="-175" y="371"/>
      <point x="-175" y="286" type="curve" smooth="yes"/>
      <point x="-175" y="184"/>
      <point x="-123" y="129"/>
      <point x="-35" y="110" type="curve"/>
      <point x="-161" y="37" type="line"/>
      <point x="-148" y="21"/>
      <point x="-127" y="14"/>
      <point x="-102" y="19" type="curve" smooth="yes"/>
      <point x="-84" y="23"/>
      <point x="5" y="65"/>
    </contour>
    <contour>
      <point x="2" y="408" type="curve" smooth="yes"/>
      <point x="73" y="408"/>
      <point x="128" y="355"/>
      <point x="129" y="282" type="curve" smooth="yes"/>
      <point x="129" y="210"/>
      <point x="73" y="154"/>
      <point x="2" y="154" type="curve" smooth="yes"/>
      <point x="-70" y="154"/>
      <point x="-126" y="210"/>
      <point x="-126" y="282" type="curve" smooth="yes"/>
      <point x="-126" y="353"/>
      <point x="-70" y="408"/>
    </contour>
  </outline>
</glyph>
<glyph name="shadda-ar" format="2">
  <advance width="0"/>
  <unicode hex="0651"/>
  <anchor x="-1" y="0" name="_top"/>
  <outline>
    <contour>
      <point x="119" y="15" type="curve" smooth="yes"/>
      <point x="224" y="15"/>
      <point x="248" y="96"/>
      <point x="248" y="166" type="curve" smooth="yes"/>
      <point x="248" y="312" type="line"/>
      <point x="208" y="312" type="line"/>
      <point x="208" y="166" type="line" smooth="yes"/>
      <point x="208" y="108"/>
      <point x="192" y="55"/>
      <point x="119" y="55" type="curve" smooth="yes"/>
      <point x="45" y="55"/>
      <point x="17" y="109"/>
      <point x="17" y="154" type="curve" smooth="yes"/>
      <point x="17" y="312" type="line"/>
      <point x="-23" y="312" type="line"/>
      <point x="-23" y="166" type="line" smooth="yes"/>
      <point x="-23" y="108"/>
      <point x="-39" y="55"/>
      <point x="-112" y="55" type="curve" smooth="yes"/>
      <point x="-186" y="55"/>
      <point x="-214" y="109"/>
      <point x="-214" y="154" type="curve" smooth="yes"/>
      <point x="-214" y="312" type="line"/>
      <point x="-254" y="312" type="line"/>
      <point x="-254" y="154" type="line" smooth="yes"/>
      <point x="-254" y="95"/>
      <point x="-216" y="15"/>
      <point x="-112" y="15" type="curve" smooth="yes"/>
      <point x="-53" y="15"/>
      <point x="-19" y="41"/>
      <point x="-1" y="77" type="curve"/>
      <point x="20" y="42"/>
      <point x="59" y="15"/>
    </contour>
  </outline>
</glyph>
<glyph name="sukun-ar" format="2">
  <advance width="614"/>
  <unicode hex="0652"/>
  <anchor x="0" y="0" name="_top"/>
  <outline>
    <contour>
      <point x="0" y="51" type="curve" smooth="yes"/>
      <point x="117" y="51"/>
      <point x="212" y="145"/>
      <point x="212" y="262" type="curve" smooth="yes"/>
      <point x="212" y="379"/>
      <point x="117" y="474"/>
      <point x="0" y="474" type="curve" smooth="yes"/>
      <point x="-117" y="474"/>
      <point x="-211" y="379"/>
      <point x="-211" y="262" type="curve" smooth="yes"/>
      <point x="-211" y="145"/>
      <point x="-117" y="51"/>
    </contour>
    <contour>
      <point x="0" y="105" type="curve" smooth="yes"/>
      <point x="-87" y="105"/>
      <point x="-157" y="175"/>
      <point x="-157" y="262" type="curve" smooth="yes"/>
      <point x="-157" y="349"/>
      <point x="-87" y="419"/>
      <point x="0" y="419" type="curve" smooth="yes"/>
      <point x="87" y="419"/>
      <point x="157" y="349"/>
      <point x="157" y="262" type="curve" smooth="yes"/>
      <point x="157" y="175"/>
      <point x="87" y="105"/>
    </contour>
  </outline>
</glyph>
<glyph name="zero-ar" format="2">
  <advance width="770"/>
  <unicode hex="0660"/>
  <outline>
    <contour>
      <point x="369" y="664" type="curve" smooth="yes"/>
      <point x="401" y="664" type="line" smooth="yes"/>
      <point x="427" y="664"/>
      <point x="441" y="678"/>
      <point x="441" y="704" type="curve" smooth="yes"/>
      <point x="441" y="781" type="line" smooth="yes"/>
      <point x="441" y="807"/>
      <point x="427" y="821"/>
      <point x="401" y="821" type="curve" smooth="yes"/>
      <point x="369" y="821" type="line" smooth="yes"/>
      <point x="343" y="821"/>
      <point x="329" y="807"/>
      <point x="329" y="781" type="curve" smooth="yes"/>
      <point x="329" y="704" type="line" smooth="yes"/>
      <point x="329" y="678"/>
      <point x="343" y="664"/>
    </contour>
  </outline>
</glyph>
<glyph name="one-ar" format="2">
  <advance width="214"/>
  <unicode hex="0661"/>
  <outline>
    <contour>
      <point x="82" y="0" type="line"/>
      <point x="99" y="0" type="line" smooth="yes"/>
      <point x="121" y="0"/>
      <point x="134" y="13"/>
      <point x="134" y="35" type="curve" smooth="yes"/>
      <point x="132" y="1518" type="line" smooth="yes"/>
      <point x="132" y="1522"/>
      <point x="130" y="1522"/>
      <point x="127" y="1523" type="curve" smooth="yes"/>
      <point x="113" y="1526"/>
      <point x="99" y="1526"/>
      <point x="85" y="1523" type="curve" smooth="yes"/>
      <point x="82" y="1522"/>
      <point x="80" y="1522"/>
      <point x="80" y="1518" type="curve" smooth="yes"/>
    </contour>
  </outline>
</glyph>
<glyph name="two-ar" format="2">
  <advance width="946"/>
  <unicode hex="0662"/>
  <outline>
    <contour>
      <point x="53" y="1455" type="curve" smooth="yes"/>
      <point x="538.344" y="3.748" type="line"/>
      <point x="564" y="12" type="line" smooth="yes"/>
      <point x="579" y="17"/>
      <point x="585" y="28"/>
      <point x="580" y="44" type="curve" smooth="yes"/>
      <point x="102.119" y="1471" type="line"/>
      <point x="815" y="1471" type="line" smooth="yes"/>
      <point x="831" y="1471"/>
      <point x="840" y="1480"/>
      <point x="840" y="1496" type="curve" smooth="yes"/>
      <point x="840" y="1523" type="line"/>
      <point x="102" y="1523" type="line" smooth="yes"/>
      <point x="58" y="1523"/>
      <point x="39" y="1496"/>
    </contour>
  </outline>
</glyph>
<glyph name="seven-ar" format="2">
  <advance width="1213"/>
  <unicode hex="0667"/>
  <outline>
    <contour>
      <point x="607" y="0" type="line"/>
      <point x="656" y="0" type="line"/>
      <point x="1065" y="1489" type="line" smooth="yes"/>
      <point x="1072" y="1514"/>
      <point x="1062" y="1531"/>
      <point x="1037" y="1538" type="curve" smooth="yes"/>
      <point x="1025.929" y="1540.888" type="line"/>
      <point x="628.608" y="94.791" type="line"/>
      <point x="110.449" y="1526.846" type="line"/>
      <point x="99" y="1523" type="line" smooth="yes"/>
      <point x="75" y="1514"/>
      <point x="66" y="1497"/>
      <point x="75" y="1472" type="curve" smooth="yes"/>
    </contour>
  </outline>
</glyph>
<glyph name="percent-ar" format="2">
  <advance width="1249"/>
  <unicode hex="066A"/>
  <outline>
    <contour>
      <point x="983" y="1343" type="line"/>
      <point x="242" y="197" type="line"/>
      <point x="303" y="197" type="line"/>
      <point x="1045" y="1343" type="line"/>
    </contour>
    <contour>
      <point x="317" y="838" type="curve" smooth="yes"/>
      <point x="424" y="838"/>
      <point x="512" y="926"/>
      <point x="512" y="1034" type="curve" smooth="yes"/>
      <point x="512" y="1141"/>
      <point x="424" y="1227"/>
      <point x="317" y="1227" type="curve" smooth="yes"/>
      <point x="209" y="1227"/>
      <point x="123" y="1141"/>
      <point x="123" y="1034" type="curve" smooth="yes"/>
      <point x="123" y="926"/>
      <point x="209" y="838"/>
    </contour>
    <contour>
      <point x="317" y="887" type="curve" smooth="yes"/>
      <point x="234" y="887"/>
      <point x="172" y="953"/>
      <point x="172" y="1035" type="curve" smooth="yes"/>
      <point x="172" y="1115"/>
      <point x="234" y="1177"/>
      <point x="317" y="1177" type="curve" smooth="yes"/>
      <point x="398" y="1177"/>
      <point x="462" y="1115"/>
      <point x="462" y="1035" type="curve" smooth="yes"/>
      <point x="462" y="953"/>
      <point x="398" y="887"/>
    </contour>
    <contour>
      <point x="932" y="245" type="curve" smooth="yes"/>
      <point x="1039" y="245"/>
      <point x="1127" y="333"/>
      <point x="1127" y="441" type="curve" smooth="yes"/>
      <point x="1127" y="548"/>
      <point x="1039" y="634"/>
      <point x="932" y="634" type="curve" smooth="yes"/>
      <point x="824" y="634"/>
      <point x="738" y="548"/>
      <point x="738" y="441" type="curve" smooth="yes"/>
      <point x="738" y="333"/>
      <point x="824" y="245"/>
    </contour>
    <contour>
      <point x="932" y="294" type="curve" smooth="yes"/>
      <point x="849" y="294"/>
      <point x="787" y="360"/>
      <point x="787" y="442" type="curve" smooth="yes"/>
      <point x="787" y="522"/>
      <point x="849" y="584"/>
      <point x="932" y="584" type="curve" smooth="yes"/>
      <point x="1013" y="584"/>
      <point x="1077" y="522"/>
      <point x="1077" y="442" type="curve" smooth="yes"/>
      <point x="1077" y="360"/>
      <point x="1013" y="294"/>
    </contour>
  </outline>
</glyph>
<glyph name="alefabove-ar" format="2">
  <advance width="0"/>
  <unicode hex="0670"/>
  <anchor x="0" y="0" name="_top"/>
  <outline>
    <contour>
      <point x="-31" y="391" type="curve" smooth="yes"/>
      <point x="-27" y="68" type="line" smooth="yes"/>
      <point x="-27" y="57"/>
      <point x="-22" y="53"/>
      <point x="-17" y="50" type="curve" smooth="yes"/>
      <point x="-6" y="45"/>
      <point x="7" y="45"/>
      <point x="18" y="50" type="curve" smooth="yes"/>
      <point x="23" y="53"/>
      <point x="28" y="57"/>
      <point x="28" y="68" type="curve" smooth="yes"/>
      <point x="32" y="391" type="line" smooth="yes"/>
      <point x="32" y="403"/>
      <point x="28" y="406"/>
      <point x="23" y="409" type="curve" smooth="yes"/>
      <point x="8" y="415"/>
      <point x="-7" y="415"/>
      <point x="-22" y="409" type="curve" smooth="yes"/>
      <point x="-27" y="406"/>
      <point x="-31" y="403"/>
    </contour>
  </outline>
</glyph>
<glyph name="tcheh-ar" format="2">
  <advance width="1208"/>
  <unicode hex="0686"/>
  <anchor x="348" y="-715" name="bottom"/>
  <anchor x="541" y="1169" name="top"/>
  <outline>
    <component base="threedotsupbelow-ar" xScale="0.6591" yScale="0.6591" xOffset="844" yOffset="-96" identifier="35514C70"/>
    <contour>
      <point x="1145" y="0" type="line"/>
      <point x="1145" y="207"/>
      <point x="1108" y="965"/>
      <point x="547" y="960" type="curve" smooth="yes"/>
      <point x="480" y="959"/>
      <point x="404" y="946"/>
      <point x="321" y="921" type="curve"/>
      <point x="318" y="921"/>
      <point x="317" y="918"/>
      <point x="317" y="915" type="curve" smooth="yes"/>
      <point x="317" y="902"/>
      <point x="322" y="888"/>
      <point x="330" y="875" type="curve" smooth="yes"/>
      <point x="332" y="872"/>
      <point x="334" y="871"/>
      <point x="337" y="872" type="curve" smooth="yes"/>
      <point x="416" y="896"/>
      <point x="484" y="907"/>
      <point x="547" y="908" type="curve" smooth="yes"/>
      <point x="1021" y="912"/>
      <point x="1085" y="303"/>
      <point x="1092" y="52" type="curve"/>
      <point x="511" y="55" type="line" smooth="yes"/>
      <point x="253" y="56"/>
      <point x="101" y="-97"/>
      <point x="101" y="-281" type="curve" smooth="yes"/>
      <point x="101" y="-453"/>
      <point x="234" y="-618"/>
      <point x="569" y="-618" type="curve" smooth="yes"/>
      <point x="639" y="-618" type="line" smooth="yes"/>
      <point x="641" y="-618"/>
      <point x="643" y="-617"/>
      <point x="645" y="-615" type="curve" smooth="yes"/>
      <point x="657" y="-602"/>
      <point x="665" y="-587"/>
      <point x="671" y="-572" type="curve" smooth="yes"/>
      <point x="673" y="-568"/>
      <point x="672" y="-566"/>
      <point x="668" y="-566" type="curve" smooth="yes"/>
      <point x="569" y="-566" type="line" smooth="yes"/>
      <point x="266" y="-566"/>
      <point x="153" y="-427"/>
      <point x="153" y="-281" type="curve" smooth="yes"/>
      <point x="153" y="-127"/>
      <point x="283" y="4"/>
      <point x="511" y="3" type="curve" smooth="yes"/>
    </contour>
  </outline>
</glyph>
<glyph name="fehDotless-ar" format="2">
  <advance width="1731"/>
  <unicode hex="06A1"/>
  <outline>
    <component base="_roundhead" xOffset="777" identifier="827FD1AD"/>
    <contour>
      <point x="1204" y="52" type="line"/>
      <point x="537" y="49" type="line" smooth="yes"/>
      <point x="240" y="48"/>
      <point x="135" y="150"/>
      <point x="135" y="387" type="curve" smooth="yes"/>
      <point x="135" y="659" type="line" smooth="yes"/>
      <point x="135" y="663"/>
      <point x="132" y="664"/>
      <point x="129" y="663" type="curve" smooth="yes"/>
      <point x="113" y="658"/>
      <point x="99" y="650"/>
      <point x="85" y="637" type="curve"/>
      <point x="82" y="635"/>
      <point x="82" y="633"/>
      <point x="82" y="631" type="curve" smooth="yes"/>
      <point x="83" y="387" type="line" smooth="yes"/>
      <point x="83" y="120"/>
      <point x="212" y="-4"/>
      <point x="537" y="-3" type="curve" smooth="yes"/>
      <point x="1204" y="0" type="line"/>
    </contour>
  </outline>
</glyph>
<glyph name="fullstop-ar" format="2">
  <advance width="520"/>
  <unicode hex="06D4"/>
  <outline>
    <contour>
      <point x="384" y="-6" type="line"/>
      <point x="404" y="-6"/>
      <point x="420" y="9"/>
      <point x="420" y="29" type="curve" smooth="yes"/>
      <point x="420" y="48"/>
      <point x="404" y="64"/>
      <point x="384" y="64" type="curve" smooth="yes"/>
      <point x="135" y="64" type="line"/>
      <point x="115" y="64"/>
      <point x="100" y="48"/>
      <point x="100" y="29" type="curve" smooth="yes"/>
      <point x="100" y="9"/>
      <point x="115" y="-6"/>
      <point x="135" y="-6" type="curve" smooth="yes"/>
    </contour>
  </outline>
</glyph>
<glyph name="fiveFarsi-ar" format="2">
  <advance width="1307"/>
  <unicode hex="06F5"/>
  <outline>
    <contour>
      <point x="752" y="1235" type="line"/>
      <point x="357" y="1060"/>
      <point x="156" y="743"/>
      <point x="155" y="520.141" type="curve"/>
      <point x="153.945" y="336.581"/>
      <point x="272.329" y="104"/>
      <point x="497" y="104" type="curve"/>
      <point x="559" y="104"/>
      <point x="646" y="128"/>
      <point x="690.858" y="195.41" type="curve"/>
      <point x="736" y="124"/>
      <point x="839.37" y="102.183"/>
      <point x="909.703" y="104.01" type="curve"/>
      <point x="1102.641" y="109.429"/>
      <point x="1245" y="271.589"/>
      <point x="1245" y="520" type="curve"/>
      <point x="1245" y="950.129"/>
      <point x="869.398" y="1192.719"/>
      <point x="522.893" y="1390.578" type="curve"/>
      <point x="506" y="1381"/>
      <point x="498" y="1365"/>
      <point x="497.107" y="1345.422" type="curve"/>
      <point x="840.602" y="1149.281"/>
      <point x="1193" y="919.871"/>
      <point x="1193" y="520" type="curve"/>
      <point x="1193" y="298.611"/>
      <point x="1071.159" y="160.565"/>
      <point x="908.297" y="155.99" type="curve"/>
      <point x="836" y="154"/>
      <point x="731" y="189"/>
      <point x="713" y="276" type="curve"/>
      <point x="671" y="276" type="line"/>
      <point x="654" y="192"/>
      <point x="559" y="156"/>
      <point x="497" y="156" type="curve"/>
      <point x="309.871" y="156"/>
      <point x="206.053" y="355.219"/>
      <point x="207" y="519.859" type="curve"/>
      <point x="208" y="725"/>
      <point x="399" y="1022"/>
      <point x="774" y="1187" type="curve"/>
    </contour>
  </outline>
</glyph>
<glyph name="endash" format="2">
  <advance width="1292"/>
  <unicode hex="2013"/>
  <outline>
    <contour>
      <point x="1164" y="560" type="line"/>
      <point x="127" y="560" type="line"/>
      <point x="127" y="508" type="line"/>
      <point x="1164" y="508" type="line"/>
    </contour>
  </outline>
</glyph>
<glyph name="perthousand" format="2">
  <advance width="1711"/>
  <unicode hex="2030"/>
  <outline>
    <contour>
      <point x="983" y="1343" type="line"/>
      <point x="242" y="197" type="line"/>
      <point x="303" y="197" type="line"/>
      <point x="1045" y="1343" type="line"/>
    </contour>
    <contour>
      <point x="317" y="838" type="curve" smooth="yes"/>
      <point x="424" y="838"/>
      <point x="512" y="926"/>
      <point x="512" y="1034" type="curve" smooth="yes"/>
      <point x="512" y="1141"/>
      <point x="424" y="1227"/>
      <point x="317" y="1227" type="curve" smooth="yes"/>
      <point x="209" y="1227"/>
      <point x="123" y="1141"/>
      <point x="123" y="1034" type="curve" smooth="yes"/>
      <point x="123" y="926"/>
      <point x="209" y="838"/>
    </contour>
    <contour>
      <point x="317" y="887" type="curve" smooth="yes"/>
      <point x="234" y="887"/>
      <point x="172" y="953"/>
      <point x="172" y="1035" type="curve" smooth="yes"/>
      <point x="172" y="1115"/>
      <point x="234" y="1177"/>
      <point x="317" y="1177" type="curve" smooth="yes"/>
      <point x="398" y="1177"/>
      <point x="462" y="1115"/>
      <point x="462" y="1035" type="curve" smooth="yes"/>
      <point x="462" y="953"/>
      <point x="398" y="887"/>
    </contour>
    <contour>
      <point x="932" y="245" type="curve" smooth="yes"/>
      <point x="1039" y="245"/>
      <point x="1127" y="333"/>
      <point x="1127" y="441" type="curve" smooth="yes"/>
      <point x="1127" y="548"/>
      <point x="1039" y="634"/>
      <point x="932" y="634" type="curve" smooth="yes"/>
      <point x="824" y="634"/>
      <point x="738" y="548"/>
      <point x="738" y="441" type="curve" smooth="yes"/>
      <point x="738" y="333"/>
      <point x="824" y="245"/>
    </contour>
    <contour>
      <point x="932" y="294" type="curve" smooth="yes"/>
      <point x="849" y="294"/>
      <point x="787" y="360"/>
      <point x="787" y="442" type="curve" smooth="yes"/>
      <point x="787" y="522"/>
      <point x="849" y="584"/>
      <point x="932" y="584" type="curve" smooth="yes"/>
      <point x="1013" y="584"/>
      <point x="1077" y="522"/>
      <point x="1077" y="442" type="curve" smooth="yes"/>
      <point x="1077" y="360"/>
      <point x="1013" y="294"/>
    </contour>
    <contour>
      <point x="1396" y="245" type="curve" smooth="yes"/>
      <point x="1503" y="245"/>
      <point x="1591" y="333"/>
      <point x="1591" y="441" type="curve" smooth="yes"/>
      <point x="1591" y="548"/>
      <point x="1503" y="634"/>
      <point x="1396" y="634" type="curve" smooth="yes"/>
      <point x="1288" y="634"/>
      <point x="1202" y="548"/>
      <point x="1202" y="441" type="curve" smooth="yes"/>
      <point x="1202" y="333"/>
      <point x="1288" y="245"/>
    </contour>
    <contour>
      <point x="1396" y="294" type="curve" smooth="yes"/>
      <point x="1313" y="294"/>
      <point x="1251" y="360"/>
      <point x="1251" y="442" type="curve" smooth="yes"/>
      <point x="1251" y="522"/>
      <point x="1313" y="584"/>
      <point x="1396" y="584" type="curve" smooth="yes"/>
      <point x="1477" y="584"/>
      <point x="1541" y="522"/>
      <point x="1541" y="442" type="curve" smooth="yes"/>
      <point x="1541" y="360"/>
      <point x="1477" y="294"/>
    </contour>
  </outline>
</glyph>
<glyph name="euro" format="2">
  <advance width="1110"/>
  <unicode hex="20AC"/>
  <note>
uni20AC
</note>
  <outline>
    <contour>
      <point x="759" y="542" type="line"/>
      <point x="308" y="542" type="line"/>
      <point x="308" y="708" type="line"/>
      <point x="759" y="708" type="line"/>
      <point x="759" y="757" type="line"/>
      <point x="308" y="757" type="line"/>
      <point x="309" y="1131"/>
      <point x="534" y="1225"/>
      <point x="782" y="1225" type="curve" smooth="yes"/>
      <point x="855" y="1225"/>
      <point x="928" y="1213"/>
      <point x="1002" y="1193" type="curve"/>
      <point x="1002" y="1244" type="line"/>
      <point x="919" y="1263"/>
      <point x="846" y="1271"/>
      <point x="782" y="1271" type="curve" smooth="yes"/>
      <point x="494" y="1271"/>
      <point x="263" y="1149"/>
      <point x="254" y="757" type="curve"/>
      <point x="51" y="757" type="line"/>
      <point x="51" y="708" type="line"/>
      <point x="254" y="708" type="line"/>
      <point x="254" y="542" type="line"/>
      <point x="51" y="542" type="line"/>
      <point x="51" y="493" type="line"/>
      <point x="254" y="493" type="line"/>
      <point x="258" y="59"/>
      <point x="496" y="-34"/>
      <point x="784" y="-34" type="curve" smooth="yes"/>
      <point x="861" y="-34"/>
      <point x="933" y="-25"/>
      <point x="1002" y="-7" type="curve"/>
      <point x="1002" y="43" type="line"/>
      <point x="936" y="23"/>
      <point x="863" y="14"/>
      <point x="784" y="14" type="curve" smooth="yes"/>
      <point x="504" y="14"/>
      <point x="308" y="119"/>
      <point x="308" y="493" type="curve"/>
      <point x="759" y="493" type="line"/>
    </contour>
  </outline>
</glyph>
<glyph name="infinity" format="2">
  <advance width="1950"/>
  <unicode hex="221E"/>
  <note>
uni221E
</note>
  <outline>
    <contour>
      <point x="1847" y="460" type="curve" smooth="yes"/>
      <point x="1847" y="742"/>
      <point x="1676" y="939"/>
      <point x="1438" y="939" type="curve" smooth="yes"/>
      <point x="1239" y="939"/>
      <point x="1071" y="786"/>
      <point x="974" y="521" type="curve"/>
      <point x="877" y="787"/>
      <point x="710" y="939"/>
      <point x="512" y="939" type="curve" smooth="yes"/>
      <point x="356" y="939"/>
      <point x="224" y="854"/>
      <point x="154" y="708" type="curve" smooth="yes"/>
      <point x="119" y="636"/>
      <point x="102" y="557"/>
      <point x="102" y="470" type="curve" smooth="yes"/>
      <point x="102" y="140"/>
      <point x="277" y="-41"/>
      <point x="513" y="-41" type="curve" smooth="yes"/>
      <point x="712" y="-41"/>
      <point x="871" y="102"/>
      <point x="974" y="377" type="curve"/>
      <point x="1072" y="108"/>
      <point x="1237" y="-41"/>
      <point x="1437" y="-41" type="curve" smooth="yes"/>
      <point x="1592" y="-41"/>
      <point x="1725" y="44"/>
      <point x="1795" y="190" type="curve" smooth="yes"/>
      <point x="1829" y="260"/>
      <point x="1847" y="324"/>
    </contour>
    <contour>
      <point x="1798" y="440" type="curve" smooth="yes"/>
      <point x="1798" y="188"/>
      <point x="1651" y="6"/>
      <point x="1437" y="6" type="curve" smooth="yes"/>
      <point x="1242" y="6"/>
      <point x="1090" y="171"/>
      <point x="1006" y="431" type="curve"/>
      <point x="1006" y="468" type="line"/>
      <point x="1091" y="733"/>
      <point x="1248" y="892"/>
      <point x="1438" y="892" type="curve" smooth="yes"/>
      <point x="1647" y="892"/>
      <point x="1798" y="724"/>
    </contour>
    <contour>
      <point x="151" y="457" type="curve" smooth="yes"/>
      <point x="151" y="712"/>
      <point x="301" y="892"/>
      <point x="512" y="892" type="curve" smooth="yes"/>
      <point x="705" y="892"/>
      <point x="860" y="725"/>
      <point x="943" y="468" type="curve"/>
      <point x="943" y="432" type="line"/>
      <point x="857" y="168"/>
      <point x="701" y="6"/>
      <point x="513" y="6" type="curve" smooth="yes"/>
      <point x="375" y="6"/>
      <point x="151" y="93"/>
    </contour>
  </outline>
</glyph>
<glyph name="approxequal" format="2">
  <advance width="1055"/>
  <unicode hex="2248"/>
  <note>
uni003D
</note>
  <outline>
    <contour>
      <point x="951" y="850" type="line"/>
      <point x="889" y="943"/>
      <point x="816" y="990"/>
      <point x="734" y="990" type="curve" smooth="yes"/>
      <point x="550" y="990"/>
      <point x="497" y="847"/>
      <point x="313" y="850" type="curve" smooth="yes"/>
      <point x="234" y="850"/>
      <point x="163" y="898"/>
      <point x="99" y="994" type="curve"/>
      <point x="93" y="932" type="line"/>
      <point x="156" y="839"/>
      <point x="229" y="792"/>
      <point x="312" y="792" type="curve" smooth="yes"/>
      <point x="493" y="789"/>
      <point x="554" y="932"/>
      <point x="732" y="932" type="curve" smooth="yes"/>
      <point x="810" y="932"/>
      <point x="883" y="884"/>
      <point x="945" y="788" type="curve"/>
    </contour>
    <contour>
      <point x="962" y="476" type="line"/>
      <point x="899" y="569"/>
      <point x="826" y="616"/>
      <point x="744" y="616" type="curve" smooth="yes"/>
      <point x="559" y="616"/>
      <point x="509" y="474"/>
      <point x="323" y="476" type="curve" smooth="yes"/>
      <point x="244" y="476"/>
      <point x="172" y="524"/>
      <point x="110" y="620" type="curve"/>
      <point x="103" y="557" type="line"/>
      <point x="166" y="463"/>
      <point x="238" y="416"/>
      <point x="321" y="416" type="curve" smooth="yes"/>
      <point x="503" y="413"/>
      <point x="566" y="557"/>
      <point x="741" y="557" type="curve" smooth="yes"/>
      <point x="820" y="557"/>
      <point x="891" y="508"/>
      <point x="955" y="412" type="curve"/>
    </contour>
  </outline>
</glyph>
<glyph name="greaterequal" format="2">
  <advance width="979"/>
  <unicode hex="2265"/>
  <note>
uni003E
</note>
  <outline>
    <contour>
      <point x="107" y="513" type="line"/>
      <point x="107" y="456" type="line"/>
      <point x="875" y="823" type="line"/>
      <point x="875" y="872" type="line"/>
      <point x="107" y="1237" type="line"/>
      <point x="107" y="1180" type="line"/>
      <point x="804" y="847" type="line"/>
    </contour>
    <contour>
      <point x="886" y="157" type="line"/>
      <point x="99" y="157" type="line"/>
      <point x="99" y="105" type="line"/>
      <point x="886" y="105" type="line"/>
    </contour>
  </outline>
</glyph>
<glyph name="fi" format="2">
  <advance width="1028"/>
  <unicode hex="FB01"/>
  <note>
uniFB01
</note>
  <outline>
    <contour>
      <point x="297" y="0" type="line"/>
      <point x="297" y="990" type="line"/>
      <point x="573" y="990" type="line"/>
      <point x="573" y="1043" type="line"/>
      <point x="297" y="1043" type="line"/>
      <point x="297" y="1170" type="line" smooth="yes"/>
      <point x="297" y="1345"/>
      <point x="397" y="1449"/>
      <point x="557" y="1449" type="curve" smooth="yes"/>
      <point x="633" y="1449"/>
      <point x="697" y="1439"/>
      <point x="750" y="1419" type="curve" smooth="yes"/>
      <point x="807" y="1396" type="line"/>
      <point x="815" y="1446" type="line"/>
      <point x="736" y="1483"/>
      <point x="650" y="1501"/>
      <point x="556" y="1501" type="curve" smooth="yes"/>
      <point x="361" y="1501"/>
      <point x="246" y="1381"/>
      <point x="245" y="1174" type="curve" smooth="yes"/>
      <point x="245" y="1043" type="line"/>
      <point x="64" y="1043" type="line"/>
      <point x="64" y="990" type="line"/>
      <point x="245" y="990" type="line"/>
      <point x="245" y="0" type="line"/>
    </contour>
    <contour>
      <point x="852" y="1043" type="line"/>
      <point x="800" y="1043" type="line"/>
      <point x="800" y="0" type="line"/>
      <point x="852" y="0" type="line"/>
    </contour>
  </outline>
</glyph>
<glyph name="fl" format="2">
  <advance width="1028"/>
  <unicode hex="FB02"/>
  <note>
uniFB02
</note>
  <outline>
    <contour>
      <point x="800" y="0" type="line"/>
      <point x="852" y="0" type="line"/>
      <point x="852" y="1442" type="line"/>
      <point x="708" y="1481"/>
      <point x="597" y="1501"/>
      <point x="518" y="1501" type="curve" smooth="yes"/>
      <point x="347" y="1501"/>
      <point x="246" y="1388"/>
      <point x="245" y="1195" type="curve" smooth="yes"/>
      <point x="245" y="1043" type="line"/>
      <point x="64" y="1043" type="line"/>
      <point x="64" y="990" type="line"/>
      <point x="245" y="990" type="line"/>
      <point x="245" y="0" type="line"/>
      <point x="297" y="0" type="line"/>
      <point x="297" y="990" type="line"/>
      <point x="573" y="990" type="line"/>
      <point x="573" y="1043" type="line"/>
      <point x="297" y="1043" type="line"/>
      <point x="297" y="1192" type="line" smooth="yes"/>
      <point x="297" y="1356"/>
      <point x="381" y="1449"/>
      <point x="519" y="1449" type="curve" smooth="yes"/>
      <point x="584" y="1449"/>
      <point x="678" y="1435"/>
      <point x="800" y="1407" type="curve"/>
    </contour>
  </outline>
</glyph>
<glyph name="_meddeh" format="2">
  <advance width="0"/>
  <outline>
    <contour>
      <point x="268" y="132" type="curve"/>
      <point x="141" y="93"/>
      <point x="-118" y="72"/>
      <point x="-260" y="91" type="curve"/>
      <point x="-296" y="-196" type="line"/>
      <point x="-244" y="-202" type="line"/>
      <point x="-214" y="34" type="line"/>
      <point x="-63" y="24"/>
      <point x="165" y="45"/>
      <point x="284" y="82" type="curve"/>
      <point x="283" y="101"/>
      <point x="278" y="117"/>
    </contour>
  </outline>
</glyph>
<glyph name="_roundhead" format="2">
  <advance width="874"/>
  <outline>
    <contour>
      <point x="621" y="922" type="line" smooth="yes"/>
      <point x="113" y="922"/>
      <point x="0" y="838"/>
      <point x="0" y="256" type="curve" smooth="yes"/>
      <point x="0" y="90"/>
      <point x="90" y="0"/>
      <point x="256" y="0" type="curve" smooth="yes"/>
      <point x="822" y="0" type="line" smooth="yes"/>
      <point x="855" y="0"/>
      <point x="874" y="19"/>
      <point x="874" y="52" type="curve" smooth="yes"/>
      <point x="874" y="817" type="line" smooth="yes"/>
      <point x="874" y="885"/>
      <point x="838" y="922"/>
      <point x="770" y="922" type="curve" smooth="yes"/>
    </contour>
    <contour>
      <point x="621" y="870" type="curve" smooth="yes"/>
      <point x="770" y="870" type="line" smooth="yes"/>
      <point x="809" y="870"/>
      <point x="822" y="856"/>
      <point x="822" y="817" type="curve" smooth="yes"/>
      <point x="822" y="70" type="line" smooth="yes"/>
      <point x="822" y="59"/>
      <point x="815" y="52"/>
      <point x="804" y="52" type="curve" smooth="yes"/>
      <point x="256" y="52" type="line" smooth="yes"/>
      <point x="119" y="52"/>
      <point x="52" y="119"/>
      <point x="52" y="256" type="curve" smooth="yes"/>
      <point x="52" y="804"/>
      <point x="138" y="870"/>
    </contour>
  </outline>
</glyph>
<glyph name="_smallhamza" format="2">
  <advance width="0"/>
  <outline>
    <contour>
      <point x="314" y="-164" type="curve" smooth="yes"/>
      <point x="317" y="-150"/>
      <point x="317" y="-136"/>
      <point x="314" y="-122" type="curve" smooth="yes"/>
      <point x="313" y="-119"/>
      <point x="312" y="-117"/>
      <point x="309" y="-117" type="curve" smooth="yes"/>
      <point x="145" y="-117" type="line" smooth="yes"/>
      <point x="55" y="-117"/>
      <point x="-11" y="-39"/>
      <point x="-11" y="48" type="curve" smooth="yes"/>
      <point x="-11" y="159"/>
      <point x="80" y="196"/>
      <point x="205" y="196" type="curve" smooth="yes"/>
      <point x="249" y="196" type="line" smooth="yes"/>
      <point x="252" y="196"/>
      <point x="254" y="198"/>
      <point x="253" y="202" type="curve" smooth="yes"/>
      <point x="249" y="216"/>
      <point x="242" y="230"/>
      <point x="232" y="244" type="curve" smooth="yes"/>
      <point x="231" y="246"/>
      <point x="228" y="248"/>
      <point x="226" y="248" type="curve" smooth="yes"/>
      <point x="205" y="248" type="line" smooth="yes"/>
      <point x="64" y="248"/>
      <point x="-63" y="199"/>
      <point x="-63" y="48" type="curve" smooth="yes"/>
      <point x="-63" y="-15"/>
      <point x="-36" y="-76"/>
      <point x="10" y="-117" type="curve"/>
      <point x="-132" y="-117" type="line" smooth="yes"/>
      <point x="-135" y="-117"/>
      <point x="-136" y="-119"/>
      <point x="-137" y="-122" type="curve" smooth="yes"/>
      <point x="-140" y="-136"/>
      <point x="-140" y="-150"/>
      <point x="-137" y="-164" type="curve" smooth="yes"/>
      <point x="-136" y="-167"/>
      <point x="-135" y="-169"/>
      <point x="-132" y="-169" type="curve" smooth="yes"/>
      <point x="309" y="-169" type="line" smooth="yes"/>
      <point x="312" y="-169"/>
      <point x="313" y="-167"/>
    </contour>
  </outline>
</glyph>
<glyph name="_wasla" format="2">
  <advance width="0"/>
  <outline>
    <contour>
      <point x="313" y="258"/>
      <point x="217" y="422"/>
      <point x="108" y="422" type="curve" smooth="yes"/>
      <point x="16" y="422"/>
      <point x="-77" y="233"/>
      <point x="-119" y="84" type="curve"/>
      <point x="-170" y="83"/>
      <point x="-192" y="86"/>
      <point x="-244" y="89" type="curve"/>
      <point x="-270" y="-85" type="line"/>
      <point x="-249" y="-87" type="line"/>
      <point x="-207" y="47" type="line"/>
      <point x="-112" y="44"/>
      <point x="103" y="35"/>
      <point x="245" y="58" type="curve" smooth="yes"/>
      <point x="302" y="67"/>
      <point x="337" y="104"/>
      <point x="329" y="162" type="curve" smooth="yes"/>
    </contour>
    <contour>
      <point x="-78" y="82" type="curve"/>
      <point x="-51" y="196"/>
      <point x="38" y="382"/>
      <point x="108" y="382" type="curve"/>
      <point x="202" y="382"/>
      <point x="272" y="252"/>
      <point x="294" y="165" type="curve" smooth="yes"/>
      <point x="307" y="114"/>
      <point x="272" y="98"/>
      <point x="238" y="92" type="curve" smooth="yes"/>
      <point x="147" y="76"/>
      <point x="15" y="78"/>
    </contour>
  </outline>
</glyph>
<glyph name="alefMaksura-ar.ss01" format="2">
  <advance width="1378"/>
  <anchor x="310" y="-218" name="bottom"/>
  <anchor x="395" y="1048" name="top"/>
  <outline>
    <contour>
      <point x="691" y="-121" type="curve" smooth="yes"/>
      <point x="857" y="-121"/>
      <point x="1295" y="-89"/>
      <point x="1295" y="270" type="curve" smooth="yes"/>
      <point x="1295" y="509"/>
      <point x="1055" y="523"/>
      <point x="673" y="523" type="curve"/>
      <point x="672" y="795" type="line" smooth="yes"/>
      <point x="671" y="1038"/>
      <point x="959" y="1148"/>
      <point x="1227" y="1118" type="curve"/>
      <point x="1230" y="1117"/>
      <point x="1231" y="1120"/>
      <point x="1231" y="1123" type="curve" smooth="yes"/>
      <point x="1231" y="1138"/>
      <point x="1227" y="1152"/>
      <point x="1219" y="1165" type="curve" smooth="yes"/>
      <point x="1218" y="1167"/>
      <point x="1217" y="1169"/>
      <point x="1214" y="1169" type="curve" smooth="yes"/>
      <point x="925" y="1199"/>
      <point x="620" y="1078"/>
      <point x="620" y="795" type="curve" smooth="yes"/>
      <point x="620" y="535" type="line" smooth="yes"/>
      <point x="620" y="490"/>
      <point x="645" y="471"/>
      <point x="683" y="471" type="curve" smooth="yes"/>
      <point x="1059" y="471"/>
      <point x="1243" y="457"/>
      <point x="1243" y="270" type="curve" smooth="yes"/>
      <point x="1243" y="-39"/>
      <point x="853" y="-69"/>
      <point x="691" y="-69" type="curve" smooth="yes"/>
      <point x="101" y="-69"/>
      <point x="58" y="478"/>
      <point x="194" y="687" type="curve" smooth="yes"/>
      <point x="196" y="690"/>
      <point x="195" y="692"/>
      <point x="191" y="693" type="curve" smooth="yes"/>
      <point x="176" y="696"/>
      <point x="160" y="696"/>
      <point x="143" y="693" type="curve" smooth="yes"/>
      <point x="141" y="693"/>
      <point x="138" y="692"/>
      <point x="137" y="690" type="curve" smooth="yes"/>
      <point x="8" y="487"/>
      <point x="54" y="-121"/>
    </contour>
  </outline>
</glyph>
<glyph name="behDotless-ar.fina" format="2">
  <advance width="1521"/>
  <outline>
    <contour>
      <point x="1344" y="52" type="curve" smooth="yes"/>
      <point x="551" y="51" type="line" smooth="yes"/>
      <point x="342" y="51"/>
      <point x="113" y="81"/>
      <point x="113" y="351" type="curve" smooth="yes"/>
      <point x="113" y="658" type="line" smooth="yes"/>
      <point x="113" y="661"/>
      <point x="111" y="663"/>
      <point x="107" y="662" type="curve" smooth="yes"/>
      <point x="93" y="658"/>
      <point x="78" y="650"/>
      <point x="65" y="639" type="curve"/>
      <point x="63" y="638"/>
      <point x="61" y="635"/>
      <point x="61" y="633" type="curve" smooth="yes"/>
      <point x="61" y="351" type="line" smooth="yes"/>
      <point x="61" y="34"/>
      <point x="335" y="-1"/>
      <point x="551" y="-1" type="curve" smooth="yes"/>
      <point x="1541" y="0" type="line"/>
      <point x="1541" y="52" type="line"/>
      <point x="1401" y="52" type="line"/>
      <point x="1401" y="939" type="line" smooth="yes"/>
      <point x="1401" y="943"/>
      <point x="1398" y="943"/>
      <point x="1395" y="943" type="curve" smooth="yes"/>
      <point x="1381" y="943"/>
      <point x="1367" y="939"/>
      <point x="1353" y="929" type="curve" smooth="yes"/>
      <point x="1351" y="928"/>
      <point x="1349" y="927"/>
      <point x="1349" y="924" type="curve" smooth="yes"/>
      <point x="1349" y="57" type="line" smooth="yes"/>
      <point x="1349" y="54"/>
      <point x="1347" y="52"/>
    </contour>
  </outline>
</glyph>
<glyph name="behDotless-ar.medi" format="2">
  <advance width="696"/>
  <outline>
    <contour>
      <point x="737" y="52" type="line"/>
      <point x="604" y="52" type="line"/>
      <point x="604" y="942" type="line" smooth="yes"/>
      <point x="604" y="945"/>
      <point x="601" y="946"/>
      <point x="598" y="946" type="curve" smooth="yes"/>
      <point x="583" y="944"/>
      <point x="569" y="940"/>
      <point x="556" y="934" type="curve" smooth="yes"/>
      <point x="554" y="933"/>
      <point x="552" y="932"/>
      <point x="552" y="929" type="curve" smooth="yes"/>
      <point x="552" y="57" type="line" smooth="yes"/>
      <point x="552" y="54"/>
      <point x="550" y="52"/>
      <point x="547" y="52" type="curve" smooth="yes"/>
      <point x="-37" y="52" type="line"/>
      <point x="-37" y="0" type="line"/>
      <point x="737" y="0" type="line"/>
    </contour>
  </outline>
</glyph>
<glyph name="dal-ar.ss01" format="2">
  <advance width="1135"/>
  <anchor x="461" y="-131" name="bottom"/>
  <anchor x="506" y="1290" name="top"/>
  <outline>
    <contour>
      <point x="1023" y="1" type="line" smooth="yes"/>
      <point x="1046" y="1"/>
      <point x="1059" y="13"/>
      <point x="1059" y="36" type="curve" smooth="yes"/>
      <point x="1059" y="340"/>
      <point x="1066" y="886"/>
      <point x="520" y="1065" type="curve" smooth="yes"/>
      <point x="517" y="1066"/>
      <point x="515" y="1064"/>
      <point x="513" y="1062" type="curve" smooth="yes"/>
      <point x="500" y="1051"/>
      <point x="490" y="1037"/>
      <point x="485" y="1022" type="curve" smooth="yes"/>
      <point x="484" y="1019"/>
      <point x="484" y="1016"/>
      <point x="488" y="1015" type="curve" smooth="yes"/>
      <point x="986" y="851"/>
      <point x="1007" y="358"/>
      <point x="1007" y="53" type="curve"/>
      <point x="323" y="53" type="line" smooth="yes"/>
      <point x="241" y="53"/>
      <point x="163" y="53"/>
      <point x="99" y="91" type="curve" smooth="yes"/>
      <point x="96" y="93"/>
      <point x="94" y="92"/>
      <point x="92" y="90" type="curve" smooth="yes"/>
      <point x="83" y="81"/>
      <point x="75" y="69"/>
      <point x="70" y="54" type="curve" smooth="yes"/>
      <point x="69" y="51"/>
      <point x="69" y="49"/>
      <point x="71" y="47" type="curve"/>
      <point x="149" y="1"/>
      <point x="241" y="1"/>
      <point x="323" y="1" type="curve" smooth="yes"/>
    </contour>
  </outline>
</glyph>
<glyph name="fehDotless-ar.fina" format="2">
  <advance width="1735"/>
  <outline>
    <contour>
      <point x="1591" y="52" type="line"/>
      <point x="1591" y="0" type="line"/>
      <point x="1776" y="0" type="line"/>
      <point x="1776" y="52" type="line"/>
    </contour>
    <component base="fehDotless-ar"/>
  </outline>
</glyph>
<glyph name="fehDotless-ar.medi" format="2">
  <advance width="1038"/>
  <outline>
    <contour>
      <point x="852" y="52" type="line"/>
      <point x="852" y="0" type="line"/>
      <point x="1079" y="0" type="line"/>
      <point x="1079" y="52" type="line"/>
    </contour>
    <component base="fehDotless-ar.init"/>
  </outline>
</glyph>
<glyph name="gaf-ar.fina" format="2">
  <advance width="1654"/>
  <outline>
    <contour>
      <point x="1466" y="52" type="line"/>
      <point x="1466" y="0" type="line"/>
      <point x="1709" y="0" type="line"/>
      <point x="1709" y="52" type="line"/>
    </contour>
    <component base="gaf-ar"/>
  </outline>
</glyph>
<glyph name="gaf-ar.init" format="2">
  <advance width="915"/>
  <outline>
    <component base="kaf-ar.init"/>
    <contour>
      <point x="69" y="1169" type="line"/>
      <point x="69" y="1098" type="line"/>
      <point x="781" y="1597" type="line"/>
      <point x="782" y="1613"/>
      <point x="772" y="1635"/>
      <point x="754" y="1645" type="curve"/>
    </contour>
  </outline>
</glyph>
<glyph name="gaf-ar.medi" format="2">
  <advance width="915"/>
  <outline>
    <component base="gaf-ar.init"/>
    <contour>
      <point x="745" y="52" type="line"/>
      <point x="745" y="0" type="line"/>
      <point x="948" y="0" type="line"/>
      <point x="948" y="52" type="line"/>
    </contour>
  </outline>
</glyph>
<glyph name="heh-ar.init.ss01" format="2">
  <advance width="1182"/>
  <anchor x="398" y="-175" name="bottom"/>
  <anchor x="444" y="1489" name="top"/>
  <outline>
    <contour>
      <point x="-41" y="0" type="line"/>
      <point x="41" y="0" type="line" smooth="yes"/>
      <point x="177" y="0"/>
      <point x="299" y="28"/>
      <point x="402" y="74" type="curve"/>
      <point x="548" y="-14"/>
      <point x="705" y="-64"/>
      <point x="796" y="-64" type="curve" smooth="yes"/>
      <point x="966" y="-64"/>
      <point x="1103" y="95"/>
      <point x="1103" y="318" type="curve" smooth="yes"/>
      <point x="1103" y="590"/>
      <point x="898" y="958"/>
      <point x="293" y="1249" type="curve" smooth="yes"/>
      <point x="290" y="1250"/>
      <point x="289" y="1250"/>
      <point x="286" y="1247" type="curve" smooth="yes"/>
      <point x="276" y="1238"/>
      <point x="270" y="1225"/>
      <point x="268" y="1210" type="curve" smooth="yes"/>
      <point x="268" y="1207"/>
      <point x="268" y="1204"/>
      <point x="271" y="1203" type="curve" smooth="yes"/>
      <point x="852" y="922"/>
      <point x="1048" y="575"/>
      <point x="1051" y="325" type="curve" smooth="yes"/>
      <point x="1051" y="153"/>
      <point x="958" y="-12"/>
      <point x="796" y="-12" type="curve" smooth="yes"/>
      <point x="719" y="-12"/>
      <point x="586" y="30"/>
      <point x="457" y="102" type="curve"/>
      <point x="640" y="205"/>
      <point x="749" y="372"/>
      <point x="749" y="545" type="curve" smooth="yes"/>
      <point x="749" y="685"/>
      <point x="652" y="894"/>
      <point x="402" y="894" type="curve" smooth="yes"/>
      <point x="122" y="894"/>
      <point x="61" y="656"/>
      <point x="61" y="545" type="curve" smooth="yes"/>
      <point x="61" y="367"/>
      <point x="192" y="215"/>
      <point x="349" y="108" type="curve"/>
      <point x="260" y="73"/>
      <point x="156" y="52"/>
      <point x="41" y="52" type="curve" smooth="yes"/>
      <point x="-41" y="52" type="line"/>
    </contour>
    <contour>
      <point x="405" y="133" type="curve"/>
      <point x="249" y="233"/>
      <point x="113" y="378"/>
      <point x="113" y="545" type="curve" smooth="yes"/>
      <point x="113" y="642"/>
      <point x="162" y="842"/>
      <point x="402" y="842" type="curve" smooth="yes"/>
      <point x="614" y="842"/>
      <point x="697" y="667"/>
      <point x="697" y="545" type="curve" smooth="yes"/>
      <point x="697" y="384"/>
      <point x="589" y="226"/>
    </contour>
  </outline>
</glyph>
<glyph name="heh-ar.medi" format="2">
  <advance width="1381"/>
  <anchor x="655" y="-177" name="bottom"/>
  <anchor x="635" y="1452" name="top"/>
  <outline>
    <contour>
      <point x="1216" y="52" type="line"/>
      <point x="1216" y="0" type="line"/>
      <point x="1430" y="0" type="line"/>
      <point x="1430" y="52" type="line"/>
    </contour>
    <component base="heh-ar.init"/>
  </outline>
</glyph>
<glyph name="heh-ar.ss01" format="2">
  <advance width="1026"/>
  <anchor x="354" y="-167" name="bottom"/>
  <anchor x="473" y="1240" name="top"/>
  <outline>
    <contour>
      <point x="524" y="0" type="curve" smooth="yes"/>
      <point x="784" y="0"/>
      <point x="995" y="211"/>
      <point x="995" y="471" type="curve" smooth="yes"/>
      <point x="995" y="731"/>
      <point x="784" y="942"/>
      <point x="524" y="942" type="curve" smooth="yes"/>
      <point x="264" y="942"/>
      <point x="53" y="731"/>
      <point x="53" y="471" type="curve" smooth="yes"/>
      <point x="53" y="211"/>
      <point x="264" y="0"/>
    </contour>
    <contour>
      <point x="524" y="52" type="curve" smooth="yes"/>
      <point x="293" y="52"/>
      <point x="105" y="240"/>
      <point x="105" y="471" type="curve" smooth="yes"/>
      <point x="105" y="702"/>
      <point x="293" y="890"/>
      <point x="524" y="890" type="curve" smooth="yes"/>
      <point x="755" y="890"/>
      <point x="943" y="702"/>
      <point x="943" y="471" type="curve" smooth="yes"/>
      <point x="943" y="240"/>
      <point x="755" y="52"/>
    </contour>
  </outline>
</glyph>
<glyph name="heh-ar.ss02" format="2">
  <advance width="1036"/>
  <anchor x="394" y="-167" name="bottom"/>
  <anchor x="513" y="1240" name="top"/>
  <outline>
    <component base="_roundhead" xOffset="80" identifier="B9B11174"/>
    <contour>
      <point x="954" y="794" type="line"/>
      <point x="954" y="1081" type="line" smooth="yes"/>
      <point x="954" y="1084"/>
      <point x="951" y="1085"/>
      <point x="948" y="1085" type="curve" smooth="yes"/>
      <point x="934" y="1085"/>
      <point x="920" y="1081"/>
      <point x="906" y="1073" type="curve" smooth="yes"/>
      <point x="904" y="1072"/>
      <point x="902" y="1071"/>
      <point x="902" y="1068" type="curve" smooth="yes"/>
      <point x="902" y="794" type="line"/>
    </contour>
  </outline>
</glyph>
<glyph name="kaf-ar.fina" format="2">
  <advance width="1583"/>
  <anchor x="499" y="-147" name="bottom"/>
  <anchor x="515" y="1307" name="top"/>
  <outline>
    <contour>
      <point x="1445" y="30" type="line"/>
      <point x="1497" y="30" type="line"/>
      <point x="1497" y="1510" type="line" smooth="yes"/>
      <point x="1497" y="1514"/>
      <point x="1494" y="1515"/>
      <point x="1491" y="1515" type="curve" smooth="yes"/>
      <point x="1477" y="1517"/>
      <point x="1463" y="1513"/>
      <point x="1449" y="1505" type="curve" smooth="yes"/>
      <point x="1446" y="1503"/>
      <point x="1445" y="1503"/>
      <point x="1445" y="1500" type="curve" smooth="yes"/>
    </contour>
    <contour>
      <point x="699" y="636" type="curve" smooth="yes"/>
      <point x="1050" y="638" type="line" smooth="yes"/>
      <point x="1069" y="638"/>
      <point x="1080" y="649"/>
      <point x="1080" y="669" type="curve" smooth="yes"/>
      <point x="1092" y="939"/>
      <point x="996" y="1007"/>
      <point x="762" y="1007" type="curve"/>
      <point x="974" y="1154" type="line" smooth="yes"/>
      <point x="998" y="1171"/>
      <point x="1007" y="1203"/>
      <point x="988" y="1227" type="curve"/>
      <point x="674" y="1011" type="line"/>
      <point x="674" y="972" type="line" smooth="yes"/>
      <point x="674" y="959"/>
      <point x="681" y="952"/>
      <point x="694" y="952" type="curve" smooth="yes"/>
      <point x="754" y="952" type="line" smooth="yes"/>
      <point x="998" y="952"/>
      <point x="1018" y="896"/>
      <point x="1025" y="700" type="curve" smooth="yes"/>
      <point x="1025" y="694"/>
      <point x="1021" y="690"/>
      <point x="1015" y="690" type="curve" smooth="yes"/>
      <point x="640" y="688" type="line"/>
      <point x="640" y="656"/>
      <point x="660" y="636"/>
    </contour>
    <component base="_kafbowl" xOffset="80" identifier="41DDD865"/>
    <contour>
      <point x="1018" y="52" type="line"/>
      <point x="1018" y="0" type="line"/>
      <point x="1624" y="0" type="line"/>
      <point x="1624" y="52" type="line"/>
    </contour>
  </outline>
</glyph>
<glyph name="kurdv" format="2">
  <advance width="0"/>
  <outline>
    <contour>
      <point x="30" y="55" type="line"/>
      <point x="127" y="353" type="line" smooth="yes"/>
      <point x="134" y="374"/>
      <point x="129" y="395"/>
      <point x="114" y="400" type="curve" smooth="yes"/>
      <point x="91" y="407" type="line"/>
      <point x="1" y="114" type="line"/>
      <point x="-107" y="403" type="line"/>
      <point x="-130" y="395" type="line" smooth="yes"/>
      <point x="-144" y="390"/>
      <point x="-148" y="367"/>
      <point x="-141" y="348" type="curve" smooth="yes"/>
      <point x="-26" y="54" type="line"/>
    </contour>
  </outline>
</glyph>
<glyph name="lam-ar.fina" format="2">
  <advance width="1319"/>
  <anchor x="301" y="-576" name="bottom"/>
  <anchor x="464" y="1548" name="top"/>
  <outline>
    <component base="lam-ar"/>
    <contour>
      <point x="1195" y="52" type="line"/>
      <point x="1195" y="0" type="line"/>
      <point x="1360" y="0" type="line"/>
      <point x="1360" y="52" type="line"/>
    </contour>
  </outline>
</glyph>
<glyph name="lam-ar.medi" format="2">
  <advance width="479"/>
  <anchor x="236" y="-164" name="bottom"/>
  <anchor x="226" y="1574" name="top"/>
  <outline>
    <contour>
      <point x="520" y="52" type="line"/>
      <point x="397" y="52" type="line"/>
      <point x="397" y="1510" type="line" smooth="yes"/>
      <point x="397" y="1514"/>
      <point x="394" y="1515"/>
      <point x="391" y="1515" type="curve" smooth="yes"/>
      <point x="377" y="1517"/>
      <point x="363" y="1513"/>
      <point x="349" y="1505" type="curve" smooth="yes"/>
      <point x="346" y="1503"/>
      <point x="345" y="1503"/>
      <point x="345" y="1500" type="curve" smooth="yes"/>
      <point x="345" y="72" type="line" smooth="yes"/>
      <point x="345" y="59"/>
      <point x="338" y="52"/>
      <point x="325" y="52" type="curve" smooth="yes"/>
      <point x="-49" y="52" type="line"/>
      <point x="-49" y="0" type="line"/>
      <point x="520" y="0" type="line"/>
    </contour>
  </outline>
</glyph>
<glyph name="lam_alef-ar.fina" format="2">
  <advance width="975"/>
  <anchor x="334" y="-118" name="bottom"/>
  <anchor x="820" y="1589" name="top_1"/>
  <anchor x="109" y="1362" name="top_2"/>
  <outline>
    <component base="lam_alef-ar"/>
    <contour>
      <point x="819" y="52" type="line"/>
      <point x="819" y="0" type="line"/>
      <point x="1016" y="0" type="line"/>
      <point x="1016" y="52" type="line"/>
    </contour>
  </outline>
</glyph>
<glyph name="lam_alefHamzaabove-ar.fina" format="2">
  <advance width="975"/>
  <anchor x="314" y="-131" name="bottom"/>
  <anchor x="878" y="1648" name="top_1"/>
  <anchor x="81" y="1862" name="top_2"/>
  <outline>
    <component base="lam_alefHamzaabove-ar"/>
    <contour>
      <point x="831" y="52" type="line"/>
      <point x="831" y="0" type="line"/>
      <point x="1016" y="0" type="line"/>
      <point x="1016" y="52" type="line"/>
    </contour>
  </outline>
</glyph>
<glyph name="lam_alefHamzabelow-ar.fina" format="2">
  <advance width="975"/>
  <anchor x="317" y="-651" name="bottom"/>
  <anchor x="853" y="1578" name="top_1"/>
  <anchor x="113" y="1382" name="top_2"/>
  <outline>
    <contour>
      <point x="831" y="52" type="line"/>
      <point x="831" y="0" type="line"/>
      <point x="1016" y="0" type="line"/>
      <point x="1016" y="52" type="line"/>
    </contour>
    <component base="_smallhamza" xOffset="192" yOffset="-360" identifier="470366AB"/>
    <component base="lam_alef-ar"/>
  </outline>
</glyph>
<glyph name="noon-ar.fina" format="2">
  <advance width="1329"/>
  <anchor x="435" y="-317" name="bottom"/>
  <anchor x="624" y="1558" name="top"/>
  <outline>
    <component base="noon-ar"/>
    <contour>
      <point x="1138" y="52" type="line"/>
      <point x="1138" y="0" type="line"/>
      <point x="1370" y="0" type="line"/>
      <point x="1370" y="52" type="line"/>
    </contour>
  </outline>
</glyph>
<glyph name="noonghunna-ar.fina" format="2">
  <advance width="1329"/>
  <outline>
    <component base="noonghunna-ar"/>
    <contour>
      <point x="1140" y="52" type="line"/>
      <point x="1140" y="0" type="line"/>
      <point x="1370" y="0" type="line"/>
      <point x="1370" y="52" type="line"/>
    </contour>
  </outline>
</glyph>
<glyph name="qaf-ar.medi" format="2">
  <advance width="1022"/>
  <anchor x="421" y="-143" name="bottom"/>
  <anchor x="439" y="1568" name="top"/>
  <outline>
    <component base="qaf-ar.init"/>
    <contour>
      <point x="879" y="52" type="line"/>
      <point x="879" y="0" type="line"/>
      <point x="1063" y="0" type="line"/>
      <point x="1063" y="52" type="line"/>
    </contour>
  </outline>
</glyph>
<glyph name="sad-ar.medi" format="2">
  <advance width="1539"/>
  <anchor x="646" y="-185" name="bottom"/>
  <anchor x="658" y="1142" name="top"/>
  <outline>
    <contour>
      <point x="1094" y="52" type="line"/>
      <point x="1094" y="0" type="line"/>
      <point x="1578" y="0" type="line"/>
      <point x="1578" y="52" type="line"/>
    </contour>
    <component base="sad-ar.init"/>
  </outline>
</glyph>
<glyph name="seen-ar.fina" format="2">
  <advance width="2161"/>
  <anchor x="1199" y="-201" name="bottom"/>
  <anchor x="653" y="1076" name="top"/>
  <outline>
    <contour>
      <point x="1241" y="0" type="curve"/>
      <point x="2202" y="0" type="line"/>
      <point x="2202" y="52" type="line"/>
      <point x="2079" y="52" type="line"/>
      <point x="2079" y="942" type="line" smooth="yes"/>
      <point x="2079" y="945"/>
      <point x="2076" y="946"/>
      <point x="2073" y="946" type="curve" smooth="yes"/>
      <point x="2059" y="945"/>
      <point x="2045" y="941"/>
      <point x="2031" y="934" type="curve" smooth="yes"/>
      <point x="2029" y="933"/>
      <point x="2027" y="932"/>
      <point x="2027" y="929" type="curve" smooth="yes"/>
      <point x="2027" y="67" type="line" smooth="yes"/>
      <point x="2027" y="58"/>
      <point x="2021" y="52"/>
      <point x="2012" y="52" type="curve" smooth="yes"/>
      <point x="1662" y="52" type="line"/>
      <point x="1662" y="862" type="line" smooth="yes"/>
      <point x="1662" y="865"/>
      <point x="1659" y="866"/>
      <point x="1656" y="866" type="curve" smooth="yes"/>
      <point x="1642" y="865"/>
      <point x="1628" y="862"/>
      <point x="1614" y="855" type="curve" smooth="yes"/>
      <point x="1612" y="854"/>
      <point x="1610" y="853"/>
      <point x="1610" y="850" type="curve" smooth="yes"/>
      <point x="1610" y="66" type="line" smooth="yes"/>
      <point x="1610" y="57"/>
      <point x="1605" y="52"/>
      <point x="1596" y="52" type="curve" smooth="yes"/>
      <point x="1247" y="52" type="line"/>
      <point x="1248" y="777" type="line" smooth="yes"/>
      <point x="1248" y="780"/>
      <point x="1246" y="781"/>
      <point x="1243" y="781" type="curve" smooth="yes"/>
      <point x="1228" y="782"/>
      <point x="1214" y="777"/>
      <point x="1201" y="772" type="curve" smooth="yes"/>
      <point x="1198" y="771"/>
      <point x="1196" y="769"/>
      <point x="1196" y="766" type="curve" smooth="yes"/>
      <point x="1196" y="82" type="line" smooth="yes"/>
      <point x="1196" y="-57"/>
      <point x="1144" y="-135"/>
      <point x="999" y="-135" type="curve" smooth="yes"/>
      <point x="656" y="-135" type="line" smooth="yes"/>
      <point x="261" y="-135"/>
      <point x="139" y="150"/>
      <point x="134" y="311" type="curve" smooth="yes"/>
      <point x="131" y="410"/>
      <point x="151" y="509"/>
      <point x="236" y="654" type="curve" smooth="yes"/>
      <point x="238" y="658"/>
      <point x="237" y="659"/>
      <point x="232" y="658" type="curve" smooth="yes"/>
      <point x="211" y="653"/>
      <point x="188" y="641"/>
      <point x="161" y="620" type="curve"/>
      <point x="159" y="619"/>
      <point x="158" y="617"/>
      <point x="156" y="615" type="curve"/>
      <point x="110" y="544"/>
      <point x="79" y="427"/>
      <point x="82" y="309" type="curve" smooth="yes"/>
      <point x="86" y="130"/>
      <point x="225" y="-187"/>
      <point x="656" y="-187" type="curve" smooth="yes"/>
      <point x="999" y="-187" type="line" smooth="yes"/>
      <point x="1145" y="-187"/>
      <point x="1219" y="-115"/>
    </contour>
  </outline>
</glyph>
<glyph name="seen-ar.medi" format="2">
  <advance width="1364"/>
  <anchor x="488" y="-165" name="bottom"/>
  <anchor x="609" y="1125" name="top"/>
  <outline>
    <contour>
      <point x="-41" y="0" type="line"/>
      <point x="1405" y="0" type="line"/>
      <point x="1405" y="52" type="line"/>
      <point x="1263" y="52" type="line"/>
      <point x="1263" y="942" type="line" smooth="yes"/>
      <point x="1263" y="945"/>
      <point x="1260" y="946"/>
      <point x="1257" y="946" type="curve" smooth="yes"/>
      <point x="1243" y="945"/>
      <point x="1229" y="941"/>
      <point x="1215" y="934" type="curve" smooth="yes"/>
      <point x="1213" y="933"/>
      <point x="1211" y="932"/>
      <point x="1211" y="929" type="curve" smooth="yes"/>
      <point x="1212" y="67" type="line" smooth="yes"/>
      <point x="1212" y="58"/>
      <point x="1206" y="52"/>
      <point x="1197" y="52" type="curve" smooth="yes"/>
      <point x="840" y="52" type="line"/>
      <point x="840" y="862" type="line" smooth="yes"/>
      <point x="840" y="865"/>
      <point x="837" y="866"/>
      <point x="834" y="866" type="curve" smooth="yes"/>
      <point x="820" y="865"/>
      <point x="806" y="862"/>
      <point x="792" y="855" type="curve" smooth="yes"/>
      <point x="790" y="854"/>
      <point x="788" y="853"/>
      <point x="788" y="850" type="curve" smooth="yes"/>
      <point x="788" y="66" type="line" smooth="yes"/>
      <point x="788" y="57"/>
      <point x="783" y="52"/>
      <point x="774" y="52" type="curve" smooth="yes"/>
      <point x="421" y="52" type="line"/>
      <point x="422" y="777" type="line" smooth="yes"/>
      <point x="422" y="780"/>
      <point x="420" y="781"/>
      <point x="417" y="781" type="curve" smooth="yes"/>
      <point x="402" y="782"/>
      <point x="388" y="777"/>
      <point x="375" y="772" type="curve" smooth="yes"/>
      <point x="372" y="771"/>
      <point x="370" y="769"/>
      <point x="370" y="766" type="curve" smooth="yes"/>
      <point x="370" y="66" type="line" smooth="yes"/>
      <point x="370" y="57"/>
      <point x="365" y="52"/>
      <point x="356" y="52" type="curve" smooth="yes"/>
      <point x="-42" y="52" type="line"/>
    </contour>
  </outline>
</glyph>
<glyph name="tah-ar.init" format="2">
  <advance width="1482"/>
  <anchor x="535" y="-142" name="bottom"/>
  <anchor x="939" y="1392" name="top"/>
  <outline>
    <component base="tah-ar" xOffset="-163" identifier="4B15CA88"/>
    <contour>
      <point x="-64" y="52" type="line"/>
      <point x="-64" y="0" type="line"/>
      <point x="199" y="0" type="line"/>
      <point x="199" y="52" type="line"/>
    </contour>
  </outline>
</glyph>
<glyph name="tah-ar.ss01" format="2">
  <advance width="1645"/>
  <anchor x="525" y="-129" name="bottom"/>
  <anchor x="1038" y="1155" name="top"/>
  <outline>
    <component base="_sadhead" xOffset="451" identifier="A7202206"/>
    <contour>
      <point x="490" y="0" type="line"/>
      <point x="490" y="1518" type="line" smooth="yes"/>
      <point x="490" y="1521"/>
      <point x="487" y="1523"/>
      <point x="484" y="1523" type="curve" smooth="yes"/>
      <point x="468" y="1523"/>
      <point x="454" y="1519"/>
      <point x="442" y="1513" type="curve" smooth="yes"/>
      <point x="439" y="1512"/>
      <point x="438" y="1510"/>
      <point x="438" y="1507" type="curve" smooth="yes"/>
      <point x="438" y="52" type="line"/>
      <point x="97" y="52" type="line"/>
      <point x="97" y="34" type="line" smooth="yes"/>
      <point x="97" y="16"/>
      <point x="111" y="0"/>
      <point x="140" y="0" type="curve" smooth="yes"/>
    </contour>
  </outline>
</glyph>
<glyph name="tcheh-ar.fina" format="2">
  <advance width="1208"/>
  <outline>
    <component base="tcheh-ar"/>
    <contour>
      <point x="1022" y="52" type="line"/>
      <point x="1022" y="0" type="line"/>
      <point x="1259" y="0" type="line"/>
      <point x="1259" y="52" type="line"/>
    </contour>
  </outline>
</glyph>
<glyph name="waw-ar.fina" format="2">
  <advance width="1026"/>
  <anchor x="311" y="-472" name="bottom"/>
  <anchor x="468" y="1168" name="top"/>
  <outline>
    <component base="waw-ar"/>
    <contour>
      <point x="905" y="52" type="line"/>
      <point x="905" y="0" type="line"/>
      <point x="1091" y="0" type="line"/>
      <point x="1091" y="52" type="line"/>
    </contour>
  </outline>
</glyph>
<glyph name="yehbarree-ar.fina" format="2">
  <advance width="1442"/>
  <outline>
    <contour>
      <point x="880" y="-474" type="curve" smooth="yes"/>
      <point x="468" y="-473"/>
      <point x="160" y="-432"/>
      <point x="160" y="-213" type="curve"/>
      <point x="160" y="-86.866"/>
      <point x="306.084" y="0"/>
      <point x="833" y="0" type="curve"/>
      <point x="1462" y="0" type="line"/>
      <point x="1462" y="52" type="line"/>
      <point x="833" y="52" type="line"/>
      <point x="277.116" y="52"/>
      <point x="108" y="-47.934"/>
      <point x="108" y="-213" type="curve"/>
      <point x="108" y="-466"/>
      <point x="432" y="-521"/>
      <point x="836" y="-522" type="curve" smooth="yes"/>
      <point x="842" y="-522"/>
      <point x="855" y="-519"/>
      <point x="860" y="-516" type="curve" smooth="yes"/>
      <point x="874" y="-507"/>
      <point x="882" y="-497"/>
      <point x="886" y="-486" type="curve" smooth="yes"/>
      <point x="888" y="-480"/>
      <point x="889" y="-474"/>
    </contour>
  </outline>
</glyph>
